<svg width="2319" height="5079" viewBox="0 0 2319 5079" fill="none" xmlns="http://www.w3.org/2000/svg">
<rect x="3" y="260" width="1801" height="4324" fill="#2D0000"/>
<path d="M1804 2456.16L5.49584 1384L3 4689H1804V2456.16Z" fill="#1A0000" stroke="#B45151" stroke-width="5"/>
<path d="M378.078 547.28L362.718 473.12C362.318 471.36 362.678 469.8 363.798 468.44C364.998 467.08 366.478 466.4 368.238 466.4H371.718C373.718 466.4 375.438 467.04 376.878 468.32C378.318 469.6 379.198 471.2 379.518 473.12L389.478 536.24C389.478 536.32 389.518 536.36 389.598 536.36C389.758 536.36 389.838 536.32 389.838 536.24L399.438 473.12C399.758 471.2 400.638 469.6 402.078 468.32C403.518 467.04 405.238 466.4 407.238 466.4H414.438C416.438 466.4 418.158 467.04 419.598 468.32C421.038 469.6 421.918 471.2 422.238 473.12L431.958 536.24C431.958 536.32 431.998 536.36 432.078 536.36C432.158 536.36 432.198 536.32 432.198 536.24L442.158 473.12C442.478 471.2 443.358 469.6 444.798 468.32C446.238 467.04 447.958 466.4 449.958 466.4H452.958C454.718 466.4 456.158 467.08 457.278 468.44C458.398 469.8 458.798 471.36 458.478 473.12L443.118 547.28C442.718 549.2 441.758 550.8 440.238 552.08C438.718 553.36 436.958 554 434.958 554H428.598C426.598 554 424.838 553.36 423.318 552.08C421.878 550.8 420.998 549.2 420.678 547.28L410.718 484.16C410.718 484.08 410.678 484.04 410.598 484.04C410.518 484.04 410.478 484.08 410.478 484.16L400.518 547.28C400.198 549.2 399.278 550.8 397.758 552.08C396.318 553.36 394.598 554 392.598 554H386.238C384.238 554 382.478 553.36 380.958 552.08C379.438 550.8 378.478 549.2 378.078 547.28ZM489.765 512.048C486.501 512.048 483.973 512.976 482.181 514.832C480.453 516.624 479.365 519.536 478.917 523.568C478.917 524.08 479.173 524.336 479.685 524.336H498.501C499.013 524.336 499.269 524.08 499.269 523.568C499.013 515.888 495.845 512.048 489.765 512.048ZM492.165 554.96C483.781 554.96 477.317 552.784 472.773 548.432C468.293 544.016 466.053 537.552 466.053 529.04C466.053 520.592 468.069 514.16 472.101 509.744C476.133 505.328 481.957 503.12 489.573 503.12C503.781 503.12 511.077 511.184 511.461 527.312C511.525 528.848 510.981 530.128 509.829 531.152C508.677 532.176 507.333 532.688 505.797 532.688H479.589C479.013 532.688 478.789 532.976 478.917 533.552C479.365 537.84 480.773 540.976 483.141 542.96C485.573 544.88 489.093 545.84 493.701 545.84C496.581 545.84 499.781 545.36 503.301 544.4C504.453 544.08 505.509 544.272 506.469 544.976C507.493 545.68 508.005 546.64 508.005 547.856C508.005 549.328 507.557 550.64 506.661 551.792C505.829 552.88 504.709 553.552 503.301 553.808C499.717 554.576 496.005 554.96 492.165 554.96ZM530.171 554C528.699 554 527.419 553.456 526.331 552.368C525.243 551.28 524.699 550 524.699 548.528V487.472C524.699 486 525.243 484.72 526.331 483.632C527.419 482.544 528.699 482 530.171 482H532.667C534.139 482 535.419 482.544 536.507 483.632C537.595 484.72 538.139 486 538.139 487.472V548.528C538.139 550 537.595 551.28 536.507 552.368C535.419 553.456 534.139 554 532.667 554H530.171ZM575.665 554.96C567.729 554.96 561.617 552.784 557.329 548.432C553.041 544.016 550.897 537.552 550.897 529.04C550.897 520.656 552.945 514.256 557.041 509.84C561.201 505.36 567.089 503.12 574.705 503.12C578.097 503.12 581.361 503.344 584.497 503.792C585.969 503.984 587.185 504.656 588.145 505.808C589.105 506.96 589.585 508.304 589.585 509.84C589.585 511.12 589.073 512.144 588.049 512.912C587.089 513.68 585.969 513.936 584.689 513.68C582.193 513.168 579.409 512.912 576.337 512.912C572.305 512.912 569.297 514.192 567.313 516.752C565.329 519.312 564.337 523.408 564.337 529.04C564.337 534.8 565.393 538.928 567.505 541.424C569.617 543.92 572.881 545.168 577.297 545.168C580.433 545.168 583.153 544.88 585.457 544.304C586.673 543.984 587.761 544.208 588.721 544.976C589.745 545.744 590.257 546.736 590.257 547.952C590.257 549.488 589.777 550.832 588.817 551.984C587.921 553.136 586.737 553.84 585.265 554.096C582.001 554.672 578.801 554.96 575.665 554.96ZM632.383 516.464C630.527 513.776 627.711 512.432 623.935 512.432C620.159 512.432 617.311 513.776 615.391 516.464C613.535 519.088 612.607 523.28 612.607 529.04C612.607 534.8 613.535 539.024 615.391 541.712C617.311 544.336 620.159 545.648 623.935 545.648C627.711 545.648 630.527 544.336 632.383 541.712C634.303 539.024 635.263 534.8 635.263 529.04C635.263 523.28 634.303 519.088 632.383 516.464ZM641.791 548.24C637.567 552.72 631.615 554.96 623.935 554.96C616.255 554.96 610.271 552.72 605.983 548.24C601.759 543.696 599.647 537.296 599.647 529.04C599.647 520.784 601.759 514.416 605.983 509.936C610.271 505.392 616.255 503.12 623.935 503.12C631.615 503.12 637.567 505.392 641.791 509.936C646.079 514.416 648.223 520.784 648.223 529.04C648.223 537.296 646.079 543.696 641.791 548.24ZM663.508 554C662.036 554 660.756 553.456 659.668 552.368C658.644 551.28 658.132 550 658.132 548.528V509.552C658.132 508.08 658.644 506.8 659.668 505.712C660.756 504.624 662.036 504.08 663.508 504.08H664.852C666.324 504.08 667.572 504.592 668.596 505.616C669.684 506.64 670.26 507.888 670.324 509.36V510.032C670.324 510.096 670.356 510.128 670.42 510.128C670.548 510.128 670.612 510.096 670.612 510.032C674.388 505.424 678.644 503.12 683.38 503.12C686.26 503.12 688.564 503.664 690.292 504.752C692.084 505.84 693.652 507.76 694.996 510.512C694.996 510.576 695.06 510.608 695.188 510.608C695.252 510.608 695.316 510.576 695.38 510.512C699.412 505.584 703.956 503.12 709.012 503.12C714.324 503.12 718.132 504.56 720.436 507.44C722.804 510.32 723.988 515.28 723.988 522.32V548.528C723.988 550 723.444 551.28 722.356 552.368C721.332 553.456 720.084 554 718.612 554H716.98C715.508 554 714.228 553.456 713.14 552.368C712.052 551.28 711.508 550 711.508 548.528V524.24C711.508 519.568 711.06 516.496 710.164 515.024C709.268 513.552 707.54 512.816 704.98 512.816C703.316 512.816 701.652 513.584 699.988 515.12C698.324 516.656 697.492 518.192 697.492 519.728V548.528C697.492 550 696.948 551.28 695.86 552.368C694.772 553.456 693.492 554 692.02 554H690.388C688.916 554 687.636 553.456 686.548 552.368C685.524 551.28 685.012 550 685.012 548.528V524.24C685.012 519.632 684.532 516.592 683.572 515.12C682.676 513.584 680.948 512.816 678.388 512.816C676.724 512.816 675.06 513.584 673.396 515.12C671.732 516.656 670.9 518.192 670.9 519.728V548.528C670.9 550 670.356 551.28 669.268 552.368C668.18 553.456 666.9 554 665.428 554H663.508ZM757.14 512.048C753.876 512.048 751.348 512.976 749.556 514.832C747.828 516.624 746.74 519.536 746.292 523.568C746.292 524.08 746.548 524.336 747.06 524.336H765.876C766.388 524.336 766.644 524.08 766.644 523.568C766.388 515.888 763.22 512.048 757.14 512.048ZM759.54 554.96C751.156 554.96 744.692 552.784 740.148 548.432C735.668 544.016 733.428 537.552 733.428 529.04C733.428 520.592 735.444 514.16 739.476 509.744C743.508 505.328 749.332 503.12 756.948 503.12C771.156 503.12 778.452 511.184 778.836 527.312C778.9 528.848 778.356 530.128 777.204 531.152C776.052 532.176 774.708 532.688 773.172 532.688H746.964C746.388 532.688 746.164 532.976 746.292 533.552C746.74 537.84 748.148 540.976 750.516 542.96C752.948 544.88 756.468 545.84 761.076 545.84C763.956 545.84 767.156 545.36 770.676 544.4C771.828 544.08 772.884 544.272 773.844 544.976C774.868 545.68 775.38 546.64 775.38 547.856C775.38 549.328 774.932 550.64 774.036 551.792C773.204 552.88 772.084 553.552 770.676 553.808C767.092 554.576 763.38 554.96 759.54 554.96ZM818.684 515.312C817.404 515.312 816.316 514.864 815.42 513.968C814.524 513.008 814.076 511.888 814.076 510.608C814.076 509.328 814.524 508.24 815.42 507.344C816.316 506.448 817.404 506 818.684 506H823.292C823.868 506 824.156 505.712 824.156 505.136V493.232C824.156 491.76 824.668 490.48 825.692 489.392C826.78 488.304 828.06 487.76 829.532 487.76H831.452C832.924 487.76 834.204 488.304 835.292 489.392C836.38 490.48 836.924 491.76 836.924 493.232V505.136C836.924 505.712 837.212 506 837.788 506H848.732C850.012 506 851.1 506.448 851.996 507.344C852.956 508.24 853.436 509.328 853.436 510.608C853.436 511.888 852.956 513.008 851.996 513.968C851.1 514.864 850.012 515.312 848.732 515.312H837.788C837.212 515.312 836.924 515.568 836.924 516.08V535.472C836.924 539.632 837.372 542.32 838.268 543.536C839.164 544.752 841.02 545.36 843.836 545.36C845.372 545.36 846.524 545.296 847.292 545.168C848.572 545.04 849.692 545.328 850.652 546.032C851.612 546.736 852.092 547.696 852.092 548.912C852.092 550.32 851.612 551.6 850.652 552.752C849.756 553.84 848.636 554.448 847.292 554.576C844.476 554.832 842.364 554.96 840.956 554.96C834.748 554.96 830.396 553.648 827.9 551.024C825.404 548.336 824.156 543.568 824.156 536.72V516.08C824.156 515.568 823.868 515.312 823.292 515.312H818.684ZM895.164 516.464C893.308 513.776 890.492 512.432 886.716 512.432C882.94 512.432 880.092 513.776 878.172 516.464C876.316 519.088 875.388 523.28 875.388 529.04C875.388 534.8 876.316 539.024 878.172 541.712C880.092 544.336 882.94 545.648 886.716 545.648C890.492 545.648 893.308 544.336 895.164 541.712C897.084 539.024 898.044 534.8 898.044 529.04C898.044 523.28 897.084 519.088 895.164 516.464ZM904.572 548.24C900.348 552.72 894.396 554.96 886.716 554.96C879.036 554.96 873.052 552.72 868.764 548.24C864.54 543.696 862.428 537.296 862.428 529.04C862.428 520.784 864.54 514.416 868.764 509.936C873.052 505.392 879.036 503.12 886.716 503.12C894.396 503.12 900.348 505.392 904.572 509.936C908.86 514.416 911.004 520.784 911.004 529.04C911.004 537.296 908.86 543.696 904.572 548.24Z" fill="white"/>
<path d="M976.382 550.52C976.382 551.72 973.782 552.6 968.582 553.16C963.462 553.72 958.582 554 953.942 554C949.302 554 946.302 553.72 944.942 553.16C943.582 552.6 942.902 551.72 942.902 550.52V474.44C942.902 472.36 943.942 470.88 946.022 470C948.102 469.12 952.022 468.68 957.782 468.68H1002.3C1003.98 468.68 1004.82 471.72 1004.82 477.8C1004.82 483.8 1004.42 488.4 1003.62 491.6C1002.9 494.72 1001.94 496.28 1000.74 496.28L976.382 495.08V503.24C987.022 502.76 994.142 502.52 997.742 502.52C998.942 502.52 999.742 503.16 1000.14 504.44C1000.62 505.72 1000.86 508.2 1000.86 511.88C1000.86 515.48 1000.46 518.96 999.662 522.32C998.862 525.6 997.742 527.24 996.302 527.24L976.382 526.52V550.52ZM1045.61 491.96V551.12C1045.61 552 1043.29 552.72 1038.65 553.28C1034.09 553.76 1029.37 554 1024.49 554C1019.69 554 1016.57 553.8 1015.13 553.4C1013.77 552.92 1013.09 552.16 1013.09 551.12V494.12C1013.09 492.36 1015.33 490.64 1019.81 488.96C1024.37 487.2 1029.33 486.32 1034.69 486.32C1041.97 486.32 1045.61 488.2 1045.61 491.96ZM1029.29 460.4C1034.57 460.4 1038.69 461.2 1041.65 462.8C1044.69 464.32 1046.21 467.12 1046.21 471.2C1046.21 478.4 1040.61 482 1029.41 482C1018.21 482 1012.61 478.4 1012.61 471.2C1012.61 464 1018.17 460.4 1029.29 460.4ZM1086.97 465.92V551.12C1086.97 552 1084.69 552.72 1080.13 553.28C1075.57 553.76 1070.85 554 1065.97 554C1061.17 554 1058.05 553.8 1056.61 553.4C1055.25 552.92 1054.57 552.16 1054.57 551.12V468.08C1054.57 466.32 1056.81 464.6 1061.29 462.92C1065.85 461.24 1070.73 460.4 1075.93 460.4C1083.29 460.4 1086.97 462.24 1086.97 465.92ZM1204.67 514.4V551.12C1204.67 552 1202.39 552.72 1197.83 553.28C1193.35 553.76 1188.67 554 1183.79 554C1178.99 554 1175.87 553.8 1174.43 553.4C1172.99 552.92 1172.27 552.16 1172.27 551.12V517.88C1172.27 506.44 1171.11 500.72 1168.79 500.72C1168.23 500.72 1167.67 500.96 1167.11 501.44C1166.55 501.92 1166.27 502.76 1166.27 503.96V551.12C1166.27 552 1163.99 552.72 1159.43 553.28C1154.95 553.76 1150.27 554 1145.39 554C1140.51 554 1137.35 553.8 1135.91 553.4C1134.55 552.92 1133.87 552.16 1133.87 551.12V517.88C1133.87 509 1133.31 503.68 1132.19 501.92C1131.63 501.12 1130.91 500.72 1130.03 500.72C1128.51 500.72 1127.75 501.8 1127.75 503.96V551.12C1127.75 552 1125.47 552.72 1120.91 553.28C1116.35 553.76 1111.63 554 1106.75 554C1101.95 554 1098.83 553.8 1097.39 553.4C1096.03 552.92 1095.35 552.16 1095.35 551.12V491.96C1095.35 490.28 1097.63 488.6 1102.19 486.92C1106.83 485.24 1111.71 484.4 1116.83 484.4C1121.95 484.4 1124.83 485.88 1125.47 488.84L1126.55 494.12H1127.39C1129.71 489.56 1133.55 486.32 1138.91 484.4C1141.15 483.68 1144.03 483.32 1147.55 483.32C1154.59 483.32 1159.71 486.92 1162.91 494.12C1163.95 491.72 1166.55 489.32 1170.71 486.92C1174.87 484.52 1179.47 483.32 1184.51 483.32C1192.43 483.32 1197.75 485.8 1200.47 490.76C1203.27 495.64 1204.67 503.52 1204.67 514.4ZM1273.84 553.16C1270.64 553.88 1267.36 554.36 1264 554.6C1260.72 554.92 1257.48 555.08 1254.28 555.08C1251.16 555.08 1248.72 555 1246.96 554.84C1245.28 554.68 1243.04 554.28 1240.24 553.64C1237.44 553 1234.88 552.12 1232.56 551C1230.24 549.88 1227.76 548.24 1225.12 546.08C1222.56 543.92 1220.4 541.36 1218.64 538.4C1214.56 531.52 1212.52 522.64 1212.52 511.76C1212.52 504.48 1213.64 498.04 1215.88 492.44C1218.2 486.84 1220.96 482.52 1224.16 479.48C1227.44 476.44 1231.16 474 1235.32 472.16C1242.04 469.12 1248.8 467.6 1255.6 467.6C1265.36 467.6 1272.36 468.4 1276.6 470C1278.52 470.72 1280.24 471.84 1281.76 473.36C1283.28 474.88 1284.04 477.08 1284.04 479.96C1284.04 482.84 1283.32 486.48 1281.88 490.88C1280.52 495.28 1278.52 497.48 1275.88 497.48C1275.08 497.48 1272.12 496.84 1267 495.56C1261.88 494.28 1258.4 493.64 1256.56 493.64C1253.76 493.64 1251.36 495.2 1249.36 498.32C1247.44 501.44 1246.48 505.88 1246.48 511.64C1246.48 517.4 1247.32 521.88 1249 525.08C1250.76 528.28 1253.04 529.88 1255.84 529.88C1257.84 529.88 1261.44 529.08 1266.64 527.48C1271.92 525.8 1275 524.96 1275.88 524.96C1278.36 524.96 1280.28 527.24 1281.64 531.8C1283.08 536.36 1283.8 540.04 1283.8 542.84C1283.8 545.64 1282.92 547.88 1281.16 549.56C1279.48 551.16 1277.04 552.36 1273.84 553.16ZM1328.83 555.08C1322.83 555.08 1317.67 554.56 1313.35 553.52C1309.03 552.48 1305.11 550.64 1301.59 548C1294.31 542.72 1290.67 532.88 1290.67 518.48C1290.67 505.68 1294.39 496.52 1301.83 491C1308.79 485.88 1317.79 483.32 1328.83 483.32C1333.55 483.32 1337.59 483.56 1340.95 484.04C1344.31 484.44 1347.71 485.36 1351.15 486.8C1354.67 488.24 1357.47 490.2 1359.55 492.68C1361.71 495.16 1363.47 498.6 1364.83 503C1366.19 507.32 1366.87 512.48 1366.87 518.48C1366.87 530.64 1363.43 539.8 1356.55 545.96C1349.67 552.04 1340.43 555.08 1328.83 555.08ZM1324.63 531.68C1325.19 534.56 1325.75 536.28 1326.31 536.84C1326.95 537.4 1327.75 537.68 1328.71 537.68C1329.75 537.68 1330.55 537.4 1331.11 536.84C1331.75 536.28 1332.31 534.56 1332.79 531.68C1333.35 528.8 1333.63 525.2 1333.63 520.88C1333.63 516.48 1333.51 513.12 1333.27 510.8C1333.11 508.4 1332.87 506.56 1332.55 505.28C1332.31 504 1331.95 503 1331.47 502.28C1330.75 501.24 1329.87 500.72 1328.83 500.72C1327.87 500.72 1327.07 501.04 1326.43 501.68C1325.79 502.24 1325.19 504 1324.63 506.96C1324.07 509.84 1323.79 513.96 1323.79 519.32C1323.79 524.68 1324.07 528.8 1324.63 531.68ZM1446.38 514.16V551.12C1446.38 552 1444.1 552.72 1439.54 553.28C1434.98 553.76 1430.26 554 1425.38 554C1420.58 554 1417.46 553.8 1416.02 553.4C1414.66 552.92 1413.98 552.16 1413.98 551.12V512.96C1413.98 509.36 1413.82 507 1413.5 505.88C1413.26 504.76 1413.02 503.76 1412.78 502.88C1412.22 501.36 1411.22 500.6 1409.78 500.6C1407.54 500.6 1406.42 501.68 1406.42 503.84V551.12C1406.42 552 1404.14 552.72 1399.58 553.28C1395.1 553.76 1390.42 554 1385.54 554C1380.74 554 1377.62 553.8 1376.18 553.4C1374.74 552.92 1374.02 552.16 1374.02 551.12V491.96C1374.02 490.28 1376.3 488.6 1380.86 486.92C1385.5 485.24 1390.38 484.4 1395.5 484.4C1400.62 484.4 1403.5 485.88 1404.14 488.84L1405.22 494.12H1406.06C1408.38 489.48 1412.38 486.24 1418.06 484.4C1420.38 483.68 1422.94 483.32 1425.74 483.32C1433.82 483.32 1439.26 485.76 1442.06 490.64C1444.94 495.44 1446.38 503.28 1446.38 514.16Z" fill="#FF8080"/>
<path d="M378.077 547.28L376.119 547.686L376.12 547.688L378.077 547.28ZM362.717 473.12L364.676 472.714L364.672 472.696L364.668 472.677L362.717 473.12ZM363.798 468.44L362.298 467.117L362.275 467.142L362.254 467.169L363.798 468.44ZM376.877 468.32L378.206 466.825H378.206L376.877 468.32ZM379.518 473.12L381.493 472.808L381.492 472.8L381.49 472.791L379.518 473.12ZM389.478 536.24H391.478V536.083L391.453 535.928L389.478 536.24ZM389.838 536.24L387.86 535.939L387.838 536.089V536.24H389.838ZM399.438 473.12L397.465 472.791L397.462 472.805L397.46 472.819L399.438 473.12ZM402.077 468.32L400.749 466.825L402.077 468.32ZM419.598 468.32L420.926 466.825H420.926L419.598 468.32ZM422.238 473.12L424.214 472.816L424.212 472.803L424.21 472.791L422.238 473.12ZM431.958 536.24H433.958V536.087L433.934 535.936L431.958 536.24ZM432.198 536.24L430.222 535.928L430.198 536.083V536.24H432.198ZM442.158 473.12L440.185 472.791L440.183 472.8L440.182 472.808L442.158 473.12ZM444.798 468.32L443.469 466.825H443.469L444.798 468.32ZM457.277 468.44L458.821 467.169V467.169L457.277 468.44ZM458.478 473.12L460.436 473.526L460.441 473.502L460.445 473.478L458.478 473.12ZM443.118 547.28L445.075 547.688L445.076 547.686L443.118 547.28ZM440.238 552.08L441.526 553.61L440.238 552.08ZM423.318 552.08L421.989 553.575L422.009 553.593L422.029 553.61L423.318 552.08ZM420.677 547.28L418.702 547.592L418.703 547.6L418.705 547.609L420.677 547.28ZM410.718 484.16H408.718V484.317L408.742 484.472L410.718 484.16ZM410.478 484.16L412.453 484.472L412.478 484.317V484.16H410.478ZM400.518 547.28L402.49 547.609L402.492 547.6L402.493 547.592L400.518 547.28ZM397.757 552.08L396.469 550.55L396.449 550.567L396.429 550.585L397.757 552.08ZM380.958 552.08L382.246 550.55L380.958 552.08ZM380.036 546.874L364.676 472.714L360.759 473.526L376.119 547.686L380.036 546.874ZM364.668 472.677C364.401 471.503 364.626 470.58 365.341 469.711L362.254 467.169C360.729 469.02 360.234 471.217 360.767 473.563L364.668 472.677ZM365.297 469.763C366.131 468.819 367.071 468.4 368.237 468.4V464.4C365.884 464.4 363.864 465.341 362.298 467.117L365.297 469.763ZM368.237 468.4H371.717V464.4H368.237V468.4ZM371.717 468.4C373.248 468.4 374.49 468.874 375.549 469.815L378.206 466.825C376.385 465.206 374.187 464.4 371.717 464.4V468.4ZM375.549 469.815C376.643 470.788 377.299 471.975 377.545 473.449L381.49 472.791C381.096 470.425 379.992 468.412 378.206 466.825L375.549 469.815ZM377.542 473.432L387.502 536.552L391.453 535.928L381.493 472.808L377.542 473.432ZM387.478 536.24C387.478 536.588 387.566 537.217 388.093 537.744C388.621 538.272 389.249 538.36 389.598 538.36V534.36C389.866 534.36 390.434 534.428 390.922 534.916C391.409 535.403 391.478 535.972 391.478 536.24H387.478ZM389.598 538.36C389.78 538.36 390.214 538.348 390.672 538.119C390.929 537.99 391.242 537.768 391.487 537.402C391.739 537.023 391.838 536.61 391.838 536.24H387.838C387.838 535.91 387.926 535.532 388.158 535.183C388.383 534.847 388.666 534.65 388.883 534.541C389.261 534.352 389.575 534.36 389.598 534.36V538.36ZM391.815 536.541L401.415 473.421L397.46 472.819L387.86 535.939L391.815 536.541ZM401.41 473.449C401.656 471.975 402.312 470.788 403.406 469.815L400.749 466.825C398.963 468.412 397.859 470.425 397.465 472.791L401.41 473.449ZM403.406 469.815C404.465 468.874 405.707 468.4 407.238 468.4V464.4C404.768 464.4 402.57 465.206 400.749 466.825L403.406 469.815ZM407.238 468.4H414.438V464.4H407.238V468.4ZM414.438 468.4C415.968 468.4 417.21 468.874 418.269 469.815L420.926 466.825C419.105 465.206 416.907 464.4 414.438 464.4V468.4ZM418.269 469.815C419.363 470.788 420.019 471.975 420.265 473.449L424.21 472.791C423.816 470.425 422.712 468.412 420.926 466.825L418.269 469.815ZM420.261 473.424L429.981 536.544L433.934 535.936L424.214 472.816L420.261 473.424ZM429.958 536.24C429.958 536.588 430.046 537.217 430.573 537.744C431.101 538.272 431.729 538.36 432.078 538.36V534.36C432.346 534.36 432.914 534.428 433.402 534.916C433.889 535.403 433.958 535.972 433.958 536.24H429.958ZM432.078 538.36C432.426 538.36 433.054 538.272 433.582 537.744C434.109 537.217 434.198 536.588 434.198 536.24H430.198C430.198 535.972 430.266 535.403 430.753 534.916C431.241 534.428 431.809 534.36 432.078 534.36V538.36ZM434.173 536.552L444.133 473.432L440.182 472.808L430.222 535.928L434.173 536.552ZM444.13 473.449C444.376 471.975 445.032 470.788 446.126 469.815L443.469 466.825C441.683 468.412 440.579 470.425 440.185 472.791L444.13 473.449ZM446.126 469.815C447.185 468.874 448.427 468.4 449.958 468.4V464.4C447.488 464.4 445.29 465.206 443.469 466.825L446.126 469.815ZM449.958 468.4H452.958V464.4H449.958V468.4ZM452.958 468.4C454.119 468.4 454.993 468.812 455.734 469.711L458.821 467.169C457.322 465.348 455.316 464.4 452.958 464.4V468.4ZM455.734 469.711C456.473 470.609 456.726 471.571 456.51 472.762L460.445 473.478C460.869 471.149 460.322 468.991 458.821 467.169L455.734 469.711ZM456.519 472.714L441.159 546.874L445.076 547.686L460.436 473.526L456.519 472.714ZM441.16 546.872C440.852 548.347 440.132 549.554 438.949 550.55L441.526 553.61C443.383 552.046 444.583 550.053 445.075 547.688L441.16 546.872ZM438.949 550.55C437.792 551.524 436.489 552 434.958 552V556C437.426 556 439.643 555.196 441.526 553.61L438.949 550.55ZM434.958 552H428.598V556H434.958V552ZM428.598 552C427.066 552 425.763 551.524 424.606 550.55L422.029 553.61C423.912 555.196 426.129 556 428.598 556V552ZM424.646 550.585C423.552 549.612 422.896 548.425 422.65 546.951L418.705 547.609C419.099 549.975 420.203 551.988 421.989 553.575L424.646 550.585ZM422.653 546.968L412.693 483.848L408.742 484.472L418.702 547.592L422.653 546.968ZM412.718 484.16C412.718 483.812 412.629 483.183 412.102 482.656C411.574 482.128 410.946 482.04 410.598 482.04V486.04C410.329 486.04 409.761 485.972 409.273 485.484C408.786 484.997 408.718 484.428 408.718 484.16H412.718ZM410.598 482.04C410.249 482.04 409.621 482.128 409.093 482.656C408.566 483.183 408.478 483.812 408.478 484.16H412.478C412.478 484.428 412.409 484.997 411.922 485.484C411.434 485.972 410.866 486.04 410.598 486.04V482.04ZM408.502 483.848L398.542 546.968L402.493 547.592L412.453 484.472L408.502 483.848ZM398.545 546.951C398.305 548.392 397.634 549.569 396.469 550.55L399.046 553.61C400.921 552.031 402.09 550.008 402.49 547.609L398.545 546.951ZM396.429 550.585C395.37 551.526 394.128 552 392.598 552V556C395.067 556 397.265 555.194 399.086 553.575L396.429 550.585ZM392.598 552H386.238V556H392.598V552ZM386.238 552C384.706 552 383.403 551.524 382.246 550.55L379.669 553.61C381.552 555.196 383.769 556 386.238 556V552ZM382.246 550.55C381.063 549.554 380.343 548.347 380.035 546.872L376.12 547.688C376.612 550.053 377.812 552.046 379.669 553.61L382.246 550.55ZM482.181 514.832L480.742 513.443L480.741 513.444L482.181 514.832ZM478.917 523.568L476.929 523.347L476.917 523.457V523.568H478.917ZM499.269 523.568H501.269V523.535L501.268 523.501L499.269 523.568ZM472.773 548.432L471.369 549.856L471.379 549.866L471.39 549.876L472.773 548.432ZM472.101 509.744L470.624 508.395L472.101 509.744ZM511.461 527.312L509.462 527.36L509.462 527.377L509.463 527.395L511.461 527.312ZM509.829 531.152L508.5 529.657L509.829 531.152ZM478.917 533.552L480.906 533.344L480.894 533.23L480.869 533.118L478.917 533.552ZM483.141 542.96L481.857 544.493L481.879 544.512L481.902 544.53L483.141 542.96ZM503.301 544.4L503.827 546.33L503.836 546.327L503.301 544.4ZM506.469 544.976L505.286 546.589L505.311 546.607L505.336 546.624L506.469 544.976ZM506.661 551.792L505.082 550.564L505.077 550.571L505.072 550.577L506.661 551.792ZM503.301 553.808L502.943 551.84L502.913 551.846L502.882 551.852L503.301 553.808ZM489.765 510.048C486.111 510.048 483.005 511.099 480.742 513.443L483.62 516.221C484.941 514.853 486.891 514.048 489.765 514.048V510.048ZM480.741 513.444C478.567 515.699 477.398 519.131 476.929 523.347L480.905 523.789C481.332 519.941 482.339 517.549 483.621 516.22L480.741 513.444ZM476.917 523.568C476.917 524.132 477.059 524.923 477.695 525.558C478.33 526.194 479.121 526.336 479.685 526.336V522.336C479.737 522.336 480.144 522.35 480.523 522.73C480.903 523.109 480.917 523.516 480.917 523.568H476.917ZM479.685 526.336H498.501V522.336H479.685V526.336ZM498.501 526.336C499.065 526.336 499.856 526.194 500.491 525.558C501.127 524.923 501.269 524.132 501.269 523.568H497.269C497.269 523.516 497.283 523.109 497.663 522.73C498.042 522.35 498.449 522.336 498.501 522.336V526.336ZM501.268 523.501C501.133 519.446 500.225 516.057 498.244 513.655C496.196 511.173 493.257 510.048 489.765 510.048V514.048C492.353 514.048 494.038 514.843 495.158 516.201C496.345 517.639 497.149 520.01 497.27 523.635L501.268 523.501ZM492.165 552.96C484.121 552.96 478.218 550.878 474.156 546.988L471.39 549.876C476.416 554.69 483.442 556.96 492.165 556.96V552.96ZM474.177 547.008C470.198 543.085 468.053 537.211 468.053 529.04H464.053C464.053 537.893 466.388 544.947 471.369 549.856L474.177 547.008ZM468.053 529.04C468.053 520.885 469.999 515.012 473.578 511.093L470.624 508.395C466.139 513.308 464.053 520.299 464.053 529.04H468.053ZM473.578 511.093C477.133 507.199 482.355 505.12 489.573 505.12V501.12C481.559 501.12 475.133 503.457 470.624 508.395L473.578 511.093ZM489.573 505.12C496.295 505.12 501.057 507.016 504.218 510.51C507.42 514.049 509.276 519.55 509.462 527.36L513.46 527.264C513.262 518.946 511.278 512.351 507.184 507.826C503.049 503.256 497.059 501.12 489.573 501.12V505.12ZM509.463 527.395C509.502 528.33 509.205 529.031 508.5 529.657L511.158 532.647C512.757 531.225 513.548 529.366 513.459 527.229L509.463 527.395ZM508.5 529.657C507.713 530.357 506.841 530.688 505.797 530.688V534.688C507.825 534.688 509.641 533.995 511.158 532.647L508.5 529.657ZM505.797 530.688H479.589V534.688H505.797V530.688ZM479.589 530.688C479.044 530.688 478.078 530.818 477.41 531.676C476.756 532.517 476.85 533.471 476.965 533.986L480.869 533.118C480.87 533.122 480.876 533.148 480.879 533.191C480.883 533.235 480.885 533.305 480.875 533.395C480.854 533.583 480.779 533.861 480.568 534.132C480.355 534.405 480.097 534.553 479.9 534.624C479.721 534.688 479.599 534.688 479.589 534.688V530.688ZM476.928 533.76C477.408 538.358 478.956 542.062 481.857 544.493L484.426 541.427C482.59 539.89 481.322 537.322 480.906 533.344L476.928 533.76ZM481.902 544.53C484.822 546.835 488.854 547.84 493.701 547.84V543.84C489.333 543.84 486.324 542.925 484.38 541.39L481.902 544.53ZM493.701 547.84C496.799 547.84 500.179 547.324 503.827 546.33L502.775 542.47C499.383 543.396 496.363 543.84 493.701 543.84V547.84ZM503.836 546.327C504.401 546.17 504.823 546.249 505.286 546.589L507.652 543.363C506.195 542.295 504.505 541.99 502.766 542.473L503.836 546.327ZM505.336 546.624C505.832 546.965 506.005 547.316 506.005 547.856H510.005C510.005 545.964 509.155 544.395 507.602 543.328L505.336 546.624ZM506.005 547.856C506.005 548.887 505.703 549.766 505.082 550.564L508.24 553.02C509.411 551.514 510.005 549.769 510.005 547.856H506.005ZM505.072 550.577C504.557 551.251 503.886 551.669 502.943 551.84L503.659 555.776C505.532 555.435 507.101 554.509 508.25 553.007L505.072 550.577ZM502.882 551.852C499.442 552.59 495.871 552.96 492.165 552.96V556.96C496.139 556.96 499.992 556.562 503.72 555.764L502.882 551.852ZM536.507 483.632L537.922 482.218L536.507 483.632ZM536.507 552.368L537.922 553.782L536.507 552.368ZM530.171 552C529.256 552 528.477 551.686 527.746 550.954L524.917 553.782C526.361 555.226 528.143 556 530.171 556V552ZM527.746 550.954C527.014 550.222 526.699 549.443 526.699 548.528H522.699C522.699 550.557 523.473 552.338 524.917 553.782L527.746 550.954ZM526.699 548.528V487.472H522.699V548.528H526.699ZM526.699 487.472C526.699 486.557 527.014 485.778 527.746 485.046L524.917 482.218C523.473 483.662 522.699 485.443 522.699 487.472H526.699ZM527.746 485.046C528.477 484.314 529.256 484 530.171 484V480C528.143 480 526.361 480.774 524.917 482.218L527.746 485.046ZM530.171 484H532.667V480H530.171V484ZM532.667 484C533.583 484 534.361 484.314 535.093 485.046L537.922 482.218C536.477 480.774 534.696 480 532.667 480V484ZM535.093 485.046C535.825 485.778 536.139 486.557 536.139 487.472H540.139C540.139 485.443 539.366 483.662 537.922 482.218L535.093 485.046ZM536.139 487.472V548.528H540.139V487.472H536.139ZM536.139 548.528C536.139 549.443 535.825 550.222 535.093 550.954L537.922 553.782C539.366 552.338 540.139 550.557 540.139 548.528H536.139ZM535.093 550.954C534.361 551.686 533.583 552 532.667 552V556C534.696 556 536.477 555.226 537.922 553.782L535.093 550.954ZM532.667 552H530.171V556H532.667V552ZM557.329 548.432L555.894 549.825L555.899 549.831L555.904 549.836L557.329 548.432ZM557.041 509.84L555.575 508.479L555.574 508.48L557.041 509.84ZM584.497 503.792L584.214 505.772L584.226 505.774L584.238 505.775L584.497 503.792ZM588.145 505.808L589.681 504.528L588.145 505.808ZM588.049 512.912L586.849 511.312L586.824 511.331L586.799 511.35L588.049 512.912ZM584.689 513.68L584.287 515.639L584.297 515.641L584.689 513.68ZM567.313 516.752L568.894 517.977L567.313 516.752ZM567.505 541.424L569.032 540.132V540.132L567.505 541.424ZM585.457 544.304L585.942 546.244L585.954 546.241L585.966 546.238L585.457 544.304ZM588.721 544.976L587.471 546.538L587.496 546.557L587.521 546.576L588.721 544.976ZM588.817 551.984L587.28 550.704L587.259 550.73L587.238 550.756L588.817 551.984ZM585.265 554.096L584.922 552.126L584.917 552.126L585.265 554.096ZM575.665 552.96C568.097 552.96 562.562 550.894 558.753 547.028L555.904 549.836C560.671 554.674 567.361 556.96 575.665 556.96V552.96ZM558.764 547.039C554.958 543.119 552.897 537.234 552.897 529.04H548.897C548.897 537.87 551.124 544.913 555.894 549.825L558.764 547.039ZM552.897 529.04C552.897 520.962 554.869 515.123 558.507 511.2L555.574 508.48C551.021 513.389 548.897 520.35 548.897 529.04H552.897ZM558.506 511.201C562.199 507.224 567.499 505.12 574.705 505.12V501.12C566.679 501.12 560.203 503.496 555.575 508.479L558.506 511.201ZM574.705 505.12C578.009 505.12 581.178 505.338 584.214 505.772L584.78 501.812C581.544 501.35 578.185 501.12 574.705 501.12V505.12ZM584.238 505.775C585.205 505.901 585.967 506.319 586.608 507.088L589.681 504.528C588.403 502.993 586.732 502.067 584.755 501.809L584.238 505.775ZM586.608 507.088C587.261 507.872 587.585 508.759 587.585 509.84H591.585C591.585 507.849 590.949 506.048 589.681 504.528L586.608 507.088ZM587.585 509.84C587.585 510.49 587.369 510.922 586.849 511.312L589.249 514.512C590.776 513.366 591.585 511.75 591.585 509.84H587.585ZM586.799 511.35C586.332 511.724 585.823 511.867 585.081 511.719L584.297 515.641C586.115 516.005 587.845 515.636 589.298 514.474L586.799 511.35ZM585.091 511.721C582.439 511.177 579.517 510.912 576.337 510.912V514.912C579.3 514.912 581.947 515.159 584.287 515.639L585.091 511.721ZM576.337 510.912C571.854 510.912 568.187 512.36 565.732 515.527L568.894 517.977C570.407 516.024 572.756 514.912 576.337 514.912V510.912ZM565.732 515.527C563.339 518.615 562.337 523.258 562.337 529.04H566.337C566.337 523.558 567.319 520.009 568.894 517.977L565.732 515.527ZM562.337 529.04C562.337 534.948 563.401 539.671 565.978 542.716L569.032 540.132C567.384 538.185 566.337 534.652 566.337 529.04H562.337ZM565.978 542.716C568.591 545.804 572.51 547.168 577.297 547.168V543.168C573.251 543.168 570.642 542.036 569.032 540.132L565.978 542.716ZM577.297 547.168C580.548 547.168 583.438 546.87 585.942 546.244L584.972 542.364C582.868 542.89 580.318 543.168 577.297 543.168V547.168ZM585.966 546.238C586.586 546.075 587.019 546.176 587.471 546.538L589.97 543.414C588.503 542.24 586.759 541.893 584.948 542.37L585.966 546.238ZM587.521 546.576C588.072 546.99 588.257 547.403 588.257 547.952H592.257C592.257 546.069 591.417 544.498 589.921 543.376L587.521 546.576ZM588.257 547.952C588.257 549.033 587.933 549.92 587.28 550.704L590.353 553.264C591.621 551.744 592.257 549.943 592.257 547.952H588.257ZM587.238 550.756C586.655 551.505 585.917 551.953 584.922 552.126L585.607 556.066C587.557 555.727 589.186 554.767 590.396 553.212L587.238 550.756ZM584.917 552.126C581.762 552.683 578.678 552.96 575.665 552.96V556.96C578.924 556.96 582.24 556.661 585.612 556.066L584.917 552.126ZM632.383 516.464L630.737 517.6L630.753 517.623L630.769 517.645L632.383 516.464ZM615.391 516.464L613.763 515.302L613.758 515.309L615.391 516.464ZM615.391 541.712L613.745 542.848L613.761 542.871L613.777 542.893L615.391 541.712ZM632.383 541.712L630.755 540.55L630.75 540.557L632.383 541.712ZM641.791 548.24L640.336 546.867L640.336 546.868L641.791 548.24ZM605.983 548.24L604.518 549.602L604.528 549.612L604.538 549.623L605.983 548.24ZM605.983 509.936L604.528 508.563L604.528 508.564L605.983 509.936ZM641.791 509.936L640.326 511.298L640.336 511.308L640.346 511.319L641.791 509.936ZM634.029 515.328C631.737 512.008 628.25 510.432 623.935 510.432V514.432C627.172 514.432 629.317 515.544 630.737 517.6L634.029 515.328ZM623.935 510.432C619.619 510.432 616.117 512.007 613.763 515.302L617.018 517.626C618.505 515.545 620.698 514.432 623.935 514.432V510.432ZM613.758 515.309C611.538 518.447 610.607 523.153 610.607 529.04H614.607C614.607 523.407 615.531 519.729 617.024 517.619L613.758 515.309ZM610.607 529.04C610.607 534.933 611.541 539.656 613.745 542.848L617.037 540.576C615.529 538.392 614.607 534.667 614.607 529.04H610.607ZM613.777 542.893C616.138 546.12 619.638 547.648 623.935 547.648V543.648C620.679 543.648 618.484 542.552 617.005 540.531L613.777 542.893ZM623.935 547.648C628.23 547.648 631.716 546.119 634.016 542.867L630.75 540.557C629.338 542.553 627.191 543.648 623.935 543.648V547.648ZM634.01 542.874C636.294 539.677 637.263 534.942 637.263 529.04H633.263C633.263 534.658 632.311 538.371 630.755 540.55L634.01 542.874ZM637.263 529.04C637.263 523.145 636.297 518.426 633.997 515.283L630.769 517.645C632.309 519.75 633.263 523.415 633.263 529.04H637.263ZM640.336 546.868C636.579 550.852 631.209 552.96 623.935 552.96V556.96C632.02 556.96 638.555 554.588 643.246 549.612L640.336 546.868ZM623.935 552.96C616.662 552.96 611.252 550.853 607.428 546.857L604.538 549.623C609.29 554.587 615.848 556.96 623.935 556.96V552.96ZM607.448 546.878C603.669 542.813 601.647 536.962 601.647 529.04H597.647C597.647 537.63 599.849 544.579 604.518 549.602L607.448 546.878ZM601.647 529.04C601.647 521.116 603.669 515.305 607.438 511.308L604.528 508.564C599.848 513.527 597.647 520.452 597.647 529.04H601.647ZM607.437 511.309C611.264 507.254 616.67 505.12 623.935 505.12V501.12C615.84 501.12 609.278 503.53 604.528 508.563L607.437 511.309ZM623.935 505.12C631.201 505.12 636.567 507.254 640.326 511.298L643.256 508.574C638.566 503.53 632.029 501.12 623.935 501.12V505.12ZM640.346 511.319C644.173 515.317 646.223 521.124 646.223 529.04H650.223C650.223 520.444 647.985 513.515 643.236 508.553L640.346 511.319ZM646.223 529.04C646.223 536.954 644.173 542.801 640.336 546.867L643.245 549.613C647.984 544.591 650.223 537.638 650.223 529.04H646.223ZM659.668 552.368L658.211 553.739L658.232 553.761L658.254 553.782L659.668 552.368ZM659.668 505.712L658.254 504.298L658.232 504.319L658.211 504.341L659.668 505.712ZM668.596 505.616L667.182 507.03L667.203 507.052L667.225 507.072L668.596 505.616ZM670.324 509.36H672.324V509.317L672.322 509.273L670.324 509.36ZM670.612 510.032L669.065 508.764L668.612 509.317V510.032H670.612ZM690.292 504.752L689.226 506.444L689.24 506.453L689.254 506.462L690.292 504.752ZM694.996 510.512H696.996V510.05L696.793 509.634L694.996 510.512ZM695.38 510.512L696.794 511.926L696.865 511.856L696.928 511.778L695.38 510.512ZM720.436 507.44L718.874 508.689L718.882 508.7L718.891 508.71L720.436 507.44ZM722.356 552.368L720.942 550.954L720.92 550.975L720.899 550.997L722.356 552.368ZM699.988 515.12L698.631 513.65L699.988 515.12ZM695.86 552.368L694.446 550.954L695.86 552.368ZM686.548 552.368L685.091 553.739L685.112 553.761L685.134 553.782L686.548 552.368ZM683.572 515.12L681.844 516.128L681.869 516.171L681.897 516.213L683.572 515.12ZM673.396 515.12L672.039 513.65L673.396 515.12ZM669.268 552.368L667.854 550.954L669.268 552.368ZM663.508 552C662.592 552 661.814 551.686 661.082 550.954L658.254 553.782C659.698 555.226 661.479 556 663.508 556V552ZM661.124 550.997C660.444 550.274 660.132 549.482 660.132 548.528H656.132C656.132 550.518 656.844 552.286 658.211 553.739L661.124 550.997ZM660.132 548.528V509.552H656.132V548.528H660.132ZM660.132 509.552C660.132 508.598 660.444 507.806 661.124 507.083L658.211 504.341C656.844 505.794 656.132 507.562 656.132 509.552H660.132ZM661.082 507.126C661.814 506.394 662.592 506.08 663.508 506.08V502.08C661.479 502.08 659.698 502.854 658.254 504.298L661.082 507.126ZM663.508 506.08H664.852V502.08H663.508V506.08ZM664.852 506.08C665.803 506.08 666.54 506.388 667.182 507.03L670.01 504.202C668.604 502.796 666.844 502.08 664.852 502.08V506.08ZM667.225 507.072C667.939 507.745 668.285 508.504 668.326 509.447L672.322 509.273C672.235 507.272 671.428 505.535 669.967 504.16L667.225 507.072ZM668.324 509.36V510.032H672.324V509.36H668.324ZM668.324 510.032C668.324 510.372 668.41 510.995 668.934 511.518C669.457 512.042 670.08 512.128 670.42 512.128V508.128C670.696 508.128 671.271 508.198 671.762 508.69C672.253 509.181 672.324 509.756 672.324 510.032H668.324ZM670.42 512.128C670.586 512.128 671.008 512.118 671.458 511.893C671.712 511.766 672.022 511.547 672.264 511.183C672.515 510.807 672.612 510.398 672.612 510.032H668.612C668.612 509.698 668.701 509.317 668.936 508.965C669.162 508.625 669.448 508.426 669.669 508.315C670.055 508.122 670.382 508.128 670.42 508.128V512.128ZM672.159 511.3C675.662 507.025 679.393 505.12 683.38 505.12V501.12C677.894 501.12 673.114 503.823 669.065 508.764L672.159 511.3ZM683.38 505.12C686.031 505.12 687.923 505.624 689.226 506.444L691.357 503.06C689.205 501.704 686.489 501.12 683.38 501.12V505.12ZM689.254 506.462C690.6 507.279 691.95 508.832 693.199 511.39L696.793 509.634C695.354 506.688 693.567 504.401 691.33 503.042L689.254 506.462ZM692.996 510.512C692.996 510.878 693.093 511.287 693.344 511.663C693.586 512.027 693.896 512.246 694.149 512.373C694.599 512.598 695.022 512.608 695.188 512.608V508.608C695.226 508.608 695.552 508.602 695.938 508.795C696.159 508.906 696.446 509.105 696.672 509.445C696.907 509.797 696.996 510.178 696.996 510.512H692.996ZM695.188 512.608C695.969 512.608 696.512 512.208 696.794 511.926L693.966 509.098C694.12 508.944 694.534 508.608 695.188 508.608V512.608ZM696.928 511.778C700.687 507.184 704.707 505.12 709.012 505.12V501.12C703.205 501.12 698.136 503.984 693.832 509.246L696.928 511.778ZM709.012 505.12C713.995 505.12 717.095 506.465 718.874 508.689L721.998 506.191C719.169 502.655 714.653 501.12 709.012 501.12V505.12ZM718.891 508.71C720.798 511.029 721.988 515.386 721.988 522.32H725.988C725.988 515.174 724.81 509.611 721.981 506.17L718.891 508.71ZM721.988 522.32V548.528H725.988V522.32H721.988ZM721.988 548.528C721.988 549.443 721.673 550.222 720.942 550.954L723.77 553.782C725.214 552.338 725.988 550.557 725.988 548.528H721.988ZM720.899 550.997C720.247 551.691 719.523 552 718.612 552V556C720.645 556 722.417 555.221 723.812 553.739L720.899 550.997ZM718.612 552H716.98V556H718.612V552ZM716.98 552C716.064 552 715.286 551.686 714.554 550.954L711.726 553.782C713.17 555.226 714.951 556 716.98 556V552ZM714.554 550.954C713.822 550.222 713.508 549.443 713.508 548.528H709.508C709.508 550.557 710.281 552.338 711.726 553.782L714.554 550.954ZM713.508 548.528V524.24H709.508V548.528H713.508ZM713.508 524.24C713.508 521.85 713.394 519.81 713.151 518.143C712.914 516.52 712.531 515.066 711.872 513.984L708.455 516.064C708.693 516.454 708.981 517.272 709.193 518.721C709.398 520.126 709.508 521.958 709.508 524.24H713.508ZM711.872 513.984C710.457 511.659 707.871 510.816 704.98 510.816V514.816C707.208 514.816 708.079 515.445 708.455 516.064L711.872 513.984ZM704.98 510.816C702.655 510.816 700.53 511.898 698.631 513.65L701.344 516.59C702.774 515.27 703.976 514.816 704.98 514.816V510.816ZM698.631 513.65C696.753 515.384 695.492 517.414 695.492 519.728H699.492C699.492 518.97 699.895 517.928 701.344 516.59L698.631 513.65ZM695.492 519.728V548.528H699.492V519.728H695.492ZM695.492 548.528C695.492 549.443 695.177 550.222 694.446 550.954L697.274 553.782C698.718 552.338 699.492 550.557 699.492 548.528H695.492ZM694.446 550.954C693.714 551.686 692.935 552 692.02 552V556C694.048 556 695.83 555.226 697.274 553.782L694.446 550.954ZM692.02 552H690.388V556H692.02V552ZM690.388 552C689.472 552 688.694 551.686 687.962 550.954L685.134 553.782C686.578 555.226 688.359 556 690.388 556V552ZM688.004 550.997C687.324 550.274 687.012 549.482 687.012 548.528H683.012C683.012 550.518 683.724 552.286 685.091 553.739L688.004 550.997ZM687.012 548.528V524.24H683.012V548.528H687.012ZM687.012 524.24C687.012 521.877 686.889 519.852 686.627 518.192C686.372 516.572 685.956 515.115 685.247 514.027L681.897 516.213C682.148 516.597 682.452 517.396 682.676 518.816C682.894 520.196 683.012 521.995 683.012 524.24H687.012ZM685.299 514.112C683.9 511.713 681.314 510.816 678.388 510.816V514.816C680.582 514.816 681.452 515.455 681.844 516.128L685.299 514.112ZM678.388 510.816C676.063 510.816 673.938 511.898 672.039 513.65L674.752 516.59C676.182 515.27 677.384 514.816 678.388 514.816V510.816ZM672.039 513.65C670.161 515.384 668.9 517.414 668.9 519.728H672.9C672.9 518.97 673.303 517.928 674.752 516.59L672.039 513.65ZM668.9 519.728V548.528H672.9V519.728H668.9ZM668.9 548.528C668.9 549.443 668.585 550.222 667.854 550.954L670.682 553.782C672.126 552.338 672.9 550.557 672.9 548.528H668.9ZM667.854 550.954C667.122 551.686 666.343 552 665.428 552V556C667.456 556 669.238 555.226 670.682 553.782L667.854 550.954ZM665.428 552H663.508V556H665.428V552ZM749.556 514.832L748.117 513.443L748.116 513.444L749.556 514.832ZM746.292 523.568L744.304 523.347L744.292 523.457V523.568H746.292ZM766.644 523.568H768.644V523.535L768.643 523.501L766.644 523.568ZM740.148 548.432L738.744 549.856L738.754 549.866L738.765 549.876L740.148 548.432ZM739.476 509.744L737.999 508.395L739.476 509.744ZM778.836 527.312L776.837 527.36L776.837 527.377L776.838 527.395L778.836 527.312ZM777.204 531.152L775.875 529.657L777.204 531.152ZM746.292 533.552L748.281 533.344L748.269 533.23L748.244 533.118L746.292 533.552ZM750.516 542.96L749.232 544.493L749.254 544.512L749.277 544.53L750.516 542.96ZM770.676 544.4L771.202 546.33L771.211 546.327L770.676 544.4ZM773.844 544.976L772.661 546.589L772.686 546.607L772.711 546.624L773.844 544.976ZM774.036 551.792L772.457 550.564L772.452 550.571L772.447 550.577L774.036 551.792ZM770.676 553.808L770.318 551.84L770.288 551.846L770.257 551.852L770.676 553.808ZM757.14 510.048C753.486 510.048 750.38 511.099 748.117 513.443L750.995 516.221C752.316 514.853 754.266 514.048 757.14 514.048V510.048ZM748.116 513.444C745.942 515.699 744.773 519.131 744.304 523.347L748.28 523.789C748.707 519.941 749.714 517.549 750.996 516.22L748.116 513.444ZM744.292 523.568C744.292 524.132 744.434 524.923 745.07 525.558C745.705 526.194 746.496 526.336 747.06 526.336V522.336C747.112 522.336 747.519 522.35 747.898 522.73C748.278 523.109 748.292 523.516 748.292 523.568H744.292ZM747.06 526.336H765.876V522.336H747.06V526.336ZM765.876 526.336C766.44 526.336 767.231 526.194 767.866 525.558C768.502 524.923 768.644 524.132 768.644 523.568H764.644C764.644 523.516 764.658 523.109 765.038 522.73C765.417 522.35 765.824 522.336 765.876 522.336V526.336ZM768.643 523.501C768.508 519.446 767.6 516.057 765.619 513.655C763.571 511.173 760.632 510.048 757.14 510.048V514.048C759.728 514.048 761.413 514.843 762.533 516.201C763.72 517.639 764.524 520.01 764.645 523.635L768.643 523.501ZM759.54 552.96C751.496 552.96 745.593 550.878 741.531 546.988L738.765 549.876C743.791 554.69 750.817 556.96 759.54 556.96V552.96ZM741.552 547.008C737.573 543.085 735.428 537.211 735.428 529.04H731.428C731.428 537.893 733.763 544.947 738.744 549.856L741.552 547.008ZM735.428 529.04C735.428 520.885 737.374 515.012 740.953 511.093L737.999 508.395C733.514 513.308 731.428 520.299 731.428 529.04H735.428ZM740.953 511.093C744.508 507.199 749.73 505.12 756.948 505.12V501.12C748.934 501.12 742.508 503.457 737.999 508.395L740.953 511.093ZM756.948 505.12C763.67 505.12 768.432 507.016 771.593 510.51C774.795 514.049 776.651 519.55 776.837 527.36L780.836 527.264C780.637 518.946 778.653 512.351 774.559 507.826C770.424 503.256 764.434 501.12 756.948 501.12V505.12ZM776.838 527.395C776.877 528.33 776.58 529.031 775.875 529.657L778.533 532.647C780.132 531.225 780.923 529.366 780.834 527.229L776.838 527.395ZM775.875 529.657C775.088 530.357 774.216 530.688 773.172 530.688V534.688C775.2 534.688 777.016 533.995 778.533 532.647L775.875 529.657ZM773.172 530.688H746.964V534.688H773.172V530.688ZM746.964 530.688C746.419 530.688 745.453 530.818 744.785 531.676C744.131 532.517 744.225 533.471 744.34 533.986L748.244 533.118C748.245 533.122 748.251 533.148 748.254 533.191C748.258 533.235 748.26 533.305 748.25 533.395C748.229 533.583 748.154 533.861 747.943 534.132C747.73 534.405 747.472 534.553 747.276 534.624C747.096 534.688 746.974 534.688 746.964 534.688V530.688ZM744.303 533.76C744.783 538.358 746.331 542.062 749.232 544.493L751.801 541.427C749.966 539.89 748.697 537.322 748.281 533.344L744.303 533.76ZM749.277 544.53C752.197 546.835 756.229 547.84 761.076 547.84V543.84C756.708 543.84 753.699 542.925 751.755 541.39L749.277 544.53ZM761.076 547.84C764.174 547.84 767.554 547.324 771.202 546.33L770.15 542.47C766.758 543.396 763.738 543.84 761.076 543.84V547.84ZM771.211 546.327C771.776 546.17 772.198 546.249 772.661 546.589L775.027 543.363C773.57 542.295 771.88 541.99 770.141 542.473L771.211 546.327ZM772.711 546.624C773.207 546.965 773.38 547.316 773.38 547.856H777.38C777.38 545.964 776.53 544.395 774.977 543.328L772.711 546.624ZM773.38 547.856C773.38 548.887 773.078 549.766 772.457 550.564L775.615 553.02C776.786 551.514 777.38 549.769 777.38 547.856H773.38ZM772.447 550.577C771.932 551.251 771.261 551.669 770.318 551.84L771.034 555.776C772.907 555.435 774.476 554.509 775.625 553.007L772.447 550.577ZM770.257 551.852C766.817 552.59 763.246 552.96 759.54 552.96V556.96C763.514 556.96 767.367 556.562 771.095 555.764L770.257 551.852ZM815.42 513.968L813.957 515.333L813.981 515.358L814.005 515.382L815.42 513.968ZM815.42 507.344L814.005 505.93V505.93L815.42 507.344ZM825.692 489.392L824.277 487.978L824.256 487.999L824.235 488.021L825.692 489.392ZM835.292 489.392L836.706 487.978L835.292 489.392ZM851.996 507.344L850.581 508.758L850.606 508.783L850.631 508.806L851.996 507.344ZM851.996 513.968L850.581 512.554V512.554L851.996 513.968ZM847.292 545.168L847.093 543.178L847.027 543.184L846.963 543.195L847.292 545.168ZM850.652 546.032L849.469 547.645V547.645L850.652 546.032ZM850.652 552.752L849.115 551.472L849.108 551.481L850.652 552.752ZM847.292 554.576L847.473 556.568L847.481 556.567L847.292 554.576ZM827.9 551.024L826.434 552.385L826.442 552.394L826.45 552.402L827.9 551.024ZM818.684 513.312C817.928 513.312 817.35 513.07 816.834 512.554L814.005 515.382C815.281 516.658 816.879 517.312 818.684 517.312V513.312ZM816.882 512.603C816.321 512.003 816.076 511.367 816.076 510.608H812.076C812.076 512.409 812.726 514.013 813.957 515.333L816.882 512.603ZM816.076 510.608C816.076 509.852 816.317 509.275 816.834 508.758L814.005 505.93C812.73 507.205 812.076 508.804 812.076 510.608H816.076ZM816.834 508.758C817.35 508.242 817.928 508 818.684 508V504C816.879 504 815.281 504.654 814.005 505.93L816.834 508.758ZM818.684 508H823.292V504H818.684V508ZM823.292 508C823.888 508 824.702 507.85 825.354 507.198C826.005 506.547 826.156 505.732 826.156 505.136H822.156C822.156 505.116 822.162 504.733 822.525 504.37C822.889 504.006 823.271 504 823.292 504V508ZM826.156 505.136V493.232H822.156V505.136H826.156ZM826.156 493.232C826.156 492.278 826.467 491.486 827.148 490.763L824.235 488.021C822.868 489.474 822.156 491.242 822.156 493.232H826.156ZM827.106 490.806C827.838 490.074 828.616 489.76 829.532 489.76V485.76C827.503 485.76 825.721 486.534 824.277 487.978L827.106 490.806ZM829.532 489.76H831.452V485.76H829.532V489.76ZM831.452 489.76C832.367 489.76 833.146 490.074 833.877 490.806L836.706 487.978C835.262 486.534 833.48 485.76 831.452 485.76V489.76ZM833.877 490.806C834.609 491.538 834.924 492.317 834.924 493.232H838.924C838.924 491.203 838.15 489.422 836.706 487.978L833.877 490.806ZM834.924 493.232V505.136H838.924V493.232H834.924ZM834.924 505.136C834.924 505.732 835.074 506.547 835.725 507.198C836.377 507.85 837.191 508 837.788 508V504C837.808 504 838.19 504.006 838.554 504.37C838.917 504.733 838.924 505.116 838.924 505.136H834.924ZM837.788 508H848.732V504H837.788V508ZM848.732 508C849.487 508 850.065 508.242 850.581 508.758L853.41 505.93C852.134 504.654 850.536 504 848.732 504V508ZM850.631 508.806C851.198 509.335 851.436 509.898 851.436 510.608H855.436C855.436 508.758 854.714 507.145 853.36 505.882L850.631 508.806ZM851.436 510.608C851.436 511.323 851.192 511.944 850.581 512.554L853.41 515.382C854.72 514.072 855.436 512.453 855.436 510.608H851.436ZM850.581 512.554C850.065 513.07 849.487 513.312 848.732 513.312V517.312C850.536 517.312 852.134 516.658 853.41 515.382L850.581 512.554ZM848.732 513.312H837.788V517.312H848.732V513.312ZM837.788 513.312C837.245 513.312 836.465 513.427 835.811 514.009C835.111 514.631 834.924 515.451 834.924 516.08H838.924C838.924 516.197 838.88 516.633 838.468 516.999C838.287 517.16 838.104 517.24 837.978 517.278C837.916 517.296 837.868 517.304 837.837 517.308C837.806 517.312 837.789 517.312 837.788 517.312V513.312ZM834.924 516.08V535.472H838.924V516.08H834.924ZM834.924 535.472C834.924 537.611 835.038 539.443 835.287 540.937C835.527 542.379 835.927 543.732 836.657 544.722L839.878 542.35C839.712 542.124 839.44 541.525 839.232 540.279C839.033 539.085 838.924 537.493 838.924 535.472H834.924ZM836.657 544.722C838.158 546.758 840.902 547.36 843.836 547.36V543.36C841.137 543.36 840.17 542.746 839.878 542.35L836.657 544.722ZM843.836 547.36C845.397 547.36 846.684 547.297 847.62 547.141L846.963 543.195C846.363 543.295 845.346 543.36 843.836 543.36V547.36ZM847.491 547.158C848.322 547.075 848.941 547.257 849.469 547.645L851.834 544.419C850.443 543.399 848.821 543.005 847.093 543.178L847.491 547.158ZM849.469 547.645C849.902 547.963 850.092 548.317 850.092 548.912H854.092C854.092 547.075 853.321 545.509 851.834 544.419L849.469 547.645ZM850.092 548.912C850.092 549.82 849.797 550.654 849.115 551.472L852.188 554.032C853.427 552.546 854.092 550.82 854.092 548.912H850.092ZM849.108 551.481C848.533 552.178 847.891 552.51 847.102 552.585L847.481 556.567C849.38 556.386 850.978 555.502 852.195 554.023L849.108 551.481ZM847.11 552.584C844.307 552.839 842.269 552.96 840.956 552.96V556.96C842.458 556.96 844.644 556.825 847.473 556.568L847.11 552.584ZM840.956 552.96C834.927 552.96 831.272 551.668 829.349 549.646L826.45 552.402C829.519 555.628 834.568 556.96 840.956 556.96V552.96ZM829.365 549.663C827.408 547.555 826.156 543.452 826.156 536.72H822.156C822.156 543.684 823.399 549.117 826.434 552.385L829.365 549.663ZM826.156 536.72V516.08H822.156V536.72H826.156ZM826.156 516.08C826.156 515.451 825.968 514.631 825.268 514.009C824.614 513.427 823.834 513.312 823.292 513.312V517.312C823.29 517.312 823.273 517.312 823.242 517.308C823.211 517.304 823.163 517.296 823.101 517.278C822.975 517.24 822.792 517.16 822.611 516.999C822.199 516.633 822.156 516.197 822.156 516.08H826.156ZM823.292 513.312H818.684V517.312H823.292V513.312ZM895.164 516.464L893.518 517.6L893.534 517.623L893.55 517.645L895.164 516.464ZM878.172 516.464L876.545 515.302L876.539 515.309L878.172 516.464ZM878.172 541.712L876.526 542.848L876.542 542.871L876.558 542.893L878.172 541.712ZM895.164 541.712L893.537 540.55L893.531 540.557L895.164 541.712ZM904.572 548.24L903.117 546.867L903.117 546.868L904.572 548.24ZM868.764 548.24L867.299 549.602L867.309 549.612L867.319 549.623L868.764 548.24ZM868.764 509.936L867.309 508.563L867.309 508.564L868.764 509.936ZM904.572 509.936L903.107 511.298L903.117 511.308L903.127 511.319L904.572 509.936ZM896.81 515.328C894.518 512.008 891.031 510.432 886.716 510.432V514.432C889.953 514.432 892.098 515.544 893.518 517.6L896.81 515.328ZM886.716 510.432C882.401 510.432 878.898 512.007 876.545 515.302L879.8 517.626C881.286 515.545 883.48 514.432 886.716 514.432V510.432ZM876.539 515.309C874.32 518.447 873.388 523.153 873.388 529.04H877.388C877.388 523.407 878.312 519.729 879.805 517.619L876.539 515.309ZM873.388 529.04C873.388 534.933 874.322 539.656 876.526 542.848L879.818 540.576C878.31 538.392 877.388 534.667 877.388 529.04H873.388ZM876.558 542.893C878.919 546.12 882.42 547.648 886.716 547.648V543.648C883.461 543.648 881.265 542.552 879.786 540.531L876.558 542.893ZM886.716 547.648C891.011 547.648 894.497 546.119 896.797 542.867L893.531 540.557C892.119 542.553 889.973 543.648 886.716 543.648V547.648ZM896.792 542.874C899.076 539.677 900.044 534.942 900.044 529.04H896.044C896.044 534.658 895.093 538.371 893.537 540.55L896.792 542.874ZM900.044 529.04C900.044 523.145 899.078 518.426 896.778 515.283L893.55 517.645C895.09 519.75 896.044 523.415 896.044 529.04H900.044ZM903.117 546.868C899.36 550.852 893.991 552.96 886.716 552.96V556.96C894.802 556.96 901.336 554.588 906.027 549.612L903.117 546.868ZM886.716 552.96C879.443 552.96 874.033 550.853 870.209 546.857L867.319 549.623C872.071 554.587 878.629 556.96 886.716 556.96V552.96ZM870.229 546.878C866.45 542.813 864.428 536.962 864.428 529.04H860.428C860.428 537.63 862.63 544.579 867.299 549.602L870.229 546.878ZM864.428 529.04C864.428 521.116 866.451 515.305 870.219 511.308L867.309 508.564C862.63 513.527 860.428 520.452 860.428 529.04H864.428ZM870.219 511.309C874.045 507.254 879.451 505.12 886.716 505.12V501.12C878.621 501.12 872.059 503.53 867.309 508.563L870.219 511.309ZM886.716 505.12C893.982 505.12 899.348 507.254 903.107 511.298L906.037 508.574C901.348 503.53 894.81 501.12 886.716 501.12V505.12ZM903.127 511.319C906.954 515.317 909.004 521.124 909.004 529.04H913.004C913.004 520.444 910.766 513.515 906.017 508.553L903.127 511.319ZM909.004 529.04C909.004 536.954 906.954 542.801 903.117 546.867L906.027 549.613C910.766 544.591 913.004 537.638 913.004 529.04H909.004ZM968.582 553.16L968.367 551.171L968.364 551.172L968.582 553.16ZM944.942 553.16L945.703 551.311L944.942 553.16ZM946.022 470L945.242 468.158V468.158L946.022 470ZM1003.62 491.6L1001.68 491.115L1001.68 491.133L1001.67 491.15L1003.62 491.6ZM1000.74 496.28L1000.64 498.278L1000.69 498.28H1000.74V496.28ZM976.382 495.08L976.48 493.082L974.382 492.979V495.08H976.382ZM976.382 503.24H974.382V505.332L976.472 505.238L976.382 503.24ZM1000.14 504.44L998.233 505.037L998.249 505.09L998.269 505.142L1000.14 504.44ZM999.662 522.32L1001.6 522.794L1001.61 522.783L999.662 522.32ZM996.302 527.24L996.229 529.239L996.265 529.24H996.302V527.24ZM976.382 526.52L976.454 524.521L974.382 524.446V526.52H976.382ZM974.382 550.52C974.382 550.001 974.689 549.762 974.645 549.798C974.581 549.849 974.344 549.998 973.79 550.186C972.702 550.554 970.928 550.896 968.367 551.171L968.796 555.148C971.435 554.864 973.561 554.486 975.073 553.974C975.819 553.722 976.557 553.391 977.143 552.922C977.749 552.438 978.382 551.639 978.382 550.52H974.382ZM968.364 551.172C963.309 551.725 958.502 552 953.942 552V556C958.662 556 963.615 555.715 968.799 555.148L968.364 551.172ZM953.942 552C951.654 552 949.812 551.931 948.397 551.799C946.933 551.662 946.093 551.471 945.703 551.311L944.18 555.009C945.15 555.409 946.49 555.638 948.026 555.781C949.611 555.929 951.589 556 953.942 556V552ZM945.703 551.311C945.246 551.122 945.062 550.945 944.994 550.857C944.947 550.796 944.902 550.715 944.902 550.52H940.902C940.902 551.525 941.196 552.484 941.829 553.303C942.441 554.095 943.277 554.638 944.18 555.009L945.703 551.311ZM944.902 550.52V474.44H940.902V550.52H944.902ZM944.902 474.44C944.902 473.748 945.069 473.274 945.318 472.92C945.575 472.554 946.02 472.172 946.801 471.842L945.242 468.158C943.943 468.708 942.828 469.506 942.045 470.62C941.254 471.746 940.902 473.052 940.902 474.44H944.902ZM946.801 471.842C948.461 471.139 951.997 470.68 957.782 470.68V466.68C952.046 466.68 947.742 467.101 945.242 468.158L946.801 471.842ZM957.782 470.68H1002.3V466.68H957.782V470.68ZM1002.3 470.68C1002.02 470.68 1001.86 470.515 1001.86 470.526C1001.92 470.597 1002.09 470.861 1002.26 471.493C1002.61 472.745 1002.82 474.806 1002.82 477.8H1006.82C1006.82 474.714 1006.61 472.215 1006.12 470.427C1005.87 469.539 1005.52 468.663 1004.94 467.974C1004.32 467.225 1003.42 466.68 1002.3 466.68V470.68ZM1002.82 477.8C1002.82 483.746 1002.42 488.153 1001.68 491.115L1005.56 492.085C1006.42 488.647 1006.82 483.854 1006.82 477.8H1002.82ZM1001.67 491.15C1001.33 492.632 1000.97 493.555 1000.66 494.062C1000.34 494.582 1000.33 494.28 1000.74 494.28V498.28C1002.35 498.28 1003.43 497.198 1004.06 496.158C1004.71 495.105 1005.19 493.688 1005.57 492.05L1001.67 491.15ZM1000.84 494.282L976.48 493.082L976.283 497.078L1000.64 498.278L1000.84 494.282ZM974.382 495.08V503.24H978.382V495.08H974.382ZM976.472 505.238C987.119 504.758 994.194 504.52 997.742 504.52V500.52C994.089 500.52 986.924 500.762 976.291 501.242L976.472 505.238ZM997.742 504.52C997.864 504.52 997.93 504.536 997.957 504.545C997.98 504.552 997.987 504.558 997.992 504.562C997.998 504.566 998.115 504.661 998.233 505.037L1002.05 503.843C1001.77 502.939 1001.29 502.074 1000.49 501.438C999.678 500.788 998.714 500.52 997.742 500.52V504.52ZM998.269 505.142C998.604 506.036 998.862 508.164 998.862 511.88H1002.86C1002.86 508.236 1002.64 505.404 1002.01 503.738L998.269 505.142ZM998.862 511.88C998.862 515.331 998.478 518.655 997.716 521.857L1001.61 522.783C1002.44 519.265 1002.86 515.629 1002.86 511.88H998.862ZM997.719 521.846C997.341 523.392 996.932 524.353 996.57 524.882C996.229 525.382 996.128 525.24 996.302 525.24V529.24C997.915 529.24 999.094 528.278 999.873 527.138C1000.63 526.027 1001.18 524.528 1001.6 522.794L997.719 521.846ZM996.374 525.241L976.454 524.521L976.309 528.519L996.229 529.239L996.374 525.241ZM974.382 526.52V550.52H978.382V526.52H974.382ZM1038.65 553.28L1038.86 555.269L1038.88 555.267L1038.89 555.266L1038.65 553.28ZM1015.13 553.4L1014.47 555.286L1014.53 555.309L1014.6 555.327L1015.13 553.4ZM1019.81 488.96L1020.52 490.833L1020.53 490.829L1020.53 490.826L1019.81 488.96ZM1041.65 462.8L1040.7 464.559L1040.73 464.575L1040.76 464.589L1041.65 462.8ZM1043.61 491.96V551.12H1047.61V491.96H1043.61ZM1043.61 551.12C1043.61 550.361 1044.13 550.047 1044.04 550.104C1044 550.135 1043.79 550.253 1043.28 550.41C1042.3 550.715 1040.7 551.018 1038.41 551.294L1038.89 555.266C1041.25 554.982 1043.13 554.645 1044.47 554.23C1045.12 554.027 1045.78 553.765 1046.31 553.396C1046.81 553.053 1047.61 552.319 1047.61 551.12H1043.61ZM1038.44 551.291C1033.96 551.763 1029.31 552 1024.49 552V556C1029.44 556 1034.23 555.757 1038.86 555.269L1038.44 551.291ZM1024.49 552C1022.12 552 1020.18 551.95 1018.68 551.854C1017.14 551.756 1016.18 551.614 1015.67 551.473L1014.6 555.327C1015.53 555.586 1016.84 555.744 1018.43 555.846C1020.04 555.95 1022.07 556 1024.49 556V552ZM1015.8 551.514C1015.31 551.342 1015.14 551.184 1015.09 551.136C1015.08 551.119 1015.09 551.122 1015.09 551.141C1015.1 551.159 1015.09 551.158 1015.09 551.12H1011.09C1011.09 552.121 1011.44 553.049 1012.11 553.804C1012.75 554.516 1013.6 554.978 1014.47 555.286L1015.8 551.514ZM1015.09 551.12V494.12H1011.09V551.12H1015.09ZM1015.09 494.12C1015.09 494.116 1015.09 494.102 1015.1 494.071C1015.11 494.039 1015.14 493.979 1015.2 493.89C1015.32 493.705 1015.55 493.434 1015.99 493.096C1016.88 492.412 1018.35 491.644 1020.52 490.833L1019.11 487.087C1016.8 487.956 1014.9 488.888 1013.56 489.924C1012.24 490.933 1011.09 492.32 1011.09 494.12H1015.09ZM1020.53 490.826C1024.84 489.163 1029.56 488.32 1034.69 488.32V484.32C1029.11 484.32 1023.9 485.237 1019.09 487.094L1020.53 490.826ZM1034.69 488.32C1038.23 488.32 1040.57 488.787 1041.97 489.507C1042.63 489.852 1043.02 490.224 1043.25 490.577C1043.47 490.921 1043.61 491.357 1043.61 491.96H1047.61C1047.61 490.683 1047.3 489.474 1046.61 488.408C1045.93 487.351 1044.95 486.548 1043.8 485.953C1041.56 484.793 1038.44 484.32 1034.69 484.32V488.32ZM1029.29 462.4C1034.41 462.4 1038.16 463.182 1040.7 464.559L1042.61 461.041C1039.23 459.218 1034.74 458.4 1029.29 458.4V462.4ZM1040.76 464.589C1041.94 465.179 1042.77 465.979 1043.32 466.994C1043.88 468.03 1044.21 469.402 1044.21 471.2H1048.21C1048.21 468.918 1047.79 466.85 1046.83 465.086C1045.86 463.301 1044.41 461.941 1042.55 461.011L1040.76 464.589ZM1044.21 471.2C1044.21 474.186 1043.11 476.22 1040.93 477.618C1038.61 479.113 1034.86 480 1029.41 480V484C1035.16 484 1039.82 483.087 1043.1 480.982C1046.52 478.78 1048.21 475.414 1048.21 471.2H1044.21ZM1029.41 480C1023.96 480 1020.22 479.113 1017.9 477.618C1015.72 476.22 1014.61 474.186 1014.61 471.2H1010.61C1010.61 475.414 1012.31 478.78 1015.73 480.982C1019.01 483.087 1023.66 484 1029.41 484V480ZM1014.61 471.2C1014.61 468.208 1015.72 466.174 1017.87 464.779C1020.18 463.287 1023.89 462.4 1029.29 462.4V458.4C1023.58 458.4 1018.95 459.313 1015.7 461.421C1012.29 463.626 1010.61 466.992 1010.61 471.2H1014.61ZM1080.13 553.28L1080.34 555.269L1080.35 555.267L1080.37 555.265L1080.13 553.28ZM1056.61 553.4L1055.94 555.286L1056.01 555.309L1056.07 555.327L1056.61 553.4ZM1061.29 462.92L1060.6 461.043L1060.58 461.047L1061.29 462.92ZM1084.97 465.92V551.12H1088.97V465.92H1084.97ZM1084.97 551.12C1084.97 550.377 1085.46 550.064 1085.39 550.113C1085.35 550.141 1085.15 550.257 1084.65 550.413C1083.69 550.716 1082.13 551.019 1079.88 551.295L1080.37 555.265C1082.68 554.981 1084.54 554.644 1085.86 554.227C1086.51 554.023 1087.16 553.759 1087.69 553.387C1088.19 553.036 1088.97 552.303 1088.97 551.12H1084.97ZM1079.92 551.291C1075.43 551.763 1070.78 552 1065.97 552V556C1070.91 556 1075.7 555.757 1080.34 555.269L1079.92 551.291ZM1065.97 552C1063.59 552 1061.66 551.95 1060.16 551.854C1058.62 551.756 1057.65 551.614 1057.14 551.473L1056.07 555.327C1057 555.586 1058.32 555.744 1059.9 555.846C1061.52 555.95 1063.54 556 1065.97 556V552ZM1057.27 551.514C1056.79 551.342 1056.61 551.184 1056.57 551.136C1056.55 551.119 1056.56 551.122 1056.57 551.141C1056.57 551.159 1056.57 551.158 1056.57 551.12H1052.57C1052.57 552.121 1052.91 553.049 1053.59 553.804C1054.22 554.516 1055.07 554.978 1055.94 555.286L1057.27 551.514ZM1056.57 551.12V468.08H1052.57V551.12H1056.57ZM1056.57 468.08C1056.57 468.076 1056.57 468.062 1056.58 468.031C1056.59 467.999 1056.61 467.939 1056.67 467.85C1056.79 467.665 1057.03 467.394 1057.47 467.056C1058.36 466.372 1059.83 465.604 1061.99 464.793L1060.58 461.047C1058.27 461.916 1056.38 462.848 1055.03 463.884C1053.72 464.893 1052.57 466.28 1052.57 468.08H1056.57ZM1061.98 464.797C1066.3 463.204 1070.95 462.4 1075.93 462.4V458.4C1070.51 458.4 1065.39 459.276 1060.6 461.043L1061.98 464.797ZM1075.93 462.4C1079.51 462.4 1081.89 462.858 1083.31 463.569C1084 463.91 1084.39 464.276 1084.61 464.614C1084.83 464.94 1084.97 465.35 1084.97 465.92H1088.97C1088.97 464.65 1088.64 463.45 1087.94 462.396C1087.25 461.354 1086.26 460.57 1085.1 459.991C1082.84 458.862 1079.71 458.4 1075.93 458.4V462.4ZM1197.83 553.28L1198.04 555.269L1198.06 555.267L1198.07 555.265L1197.83 553.28ZM1174.43 553.4L1173.8 555.297L1173.84 555.313L1173.89 555.327L1174.43 553.4ZM1167.11 501.44L1165.81 499.921H1165.81L1167.11 501.44ZM1159.43 553.28L1159.64 555.269L1159.66 555.267L1159.67 555.265L1159.43 553.28ZM1135.91 553.4L1135.24 555.286L1135.31 555.309L1135.37 555.327L1135.91 553.4ZM1132.19 501.92L1133.88 500.846L1133.85 500.809L1133.83 500.773L1132.19 501.92ZM1120.91 553.28L1121.12 555.269L1121.14 555.267L1121.15 555.265L1120.91 553.28ZM1097.39 553.4L1096.72 555.286L1096.79 555.309L1096.85 555.327L1097.39 553.4ZM1102.19 486.92L1101.51 485.039L1101.5 485.043L1102.19 486.92ZM1125.47 488.84L1127.43 488.439L1127.43 488.428L1127.42 488.417L1125.47 488.84ZM1126.55 494.12L1124.59 494.521L1124.92 496.12H1126.55V494.12ZM1127.39 494.12V496.12H1128.61L1129.17 495.027L1127.39 494.12ZM1138.91 484.4L1138.3 482.496L1138.27 482.506L1138.23 482.517L1138.91 484.4ZM1162.91 494.12L1161.08 494.932L1162.93 499.097L1164.74 494.915L1162.91 494.12ZM1170.71 486.92L1171.71 488.652L1170.71 486.92ZM1200.47 490.76L1198.71 491.722L1198.72 491.739L1198.73 491.755L1200.47 490.76ZM1202.67 514.4V551.12H1206.67V514.4H1202.67ZM1202.67 551.12C1202.67 550.377 1203.16 550.064 1203.09 550.113C1203.05 550.141 1202.85 550.257 1202.36 550.413C1201.4 550.716 1199.83 551.019 1197.58 551.295L1198.07 555.265C1200.38 554.981 1202.24 554.644 1203.56 554.227C1204.21 554.023 1204.86 553.759 1205.39 553.387C1205.89 553.036 1206.67 552.303 1206.67 551.12H1202.67ZM1197.62 551.291C1193.21 551.763 1188.6 552 1183.79 552V556C1188.73 556 1193.49 555.757 1198.04 555.269L1197.62 551.291ZM1183.79 552C1181.41 552 1179.48 551.95 1177.98 551.854C1176.44 551.756 1175.47 551.614 1174.96 551.473L1173.89 555.327C1174.82 555.586 1176.14 555.744 1177.72 555.846C1179.34 555.95 1181.37 556 1183.79 556V552ZM1175.06 551.503C1174.52 551.323 1174.32 551.153 1174.26 551.095C1174.24 551.073 1174.25 551.077 1174.26 551.105C1174.27 551.133 1174.27 551.144 1174.27 551.12H1170.27C1170.27 552.156 1170.65 553.097 1171.36 553.845C1172.02 554.547 1172.89 554.997 1173.8 555.297L1175.06 551.503ZM1174.27 551.12V517.88H1170.27V551.12H1174.27ZM1174.27 517.88C1174.27 512.128 1173.98 507.675 1173.36 504.612C1173.05 503.098 1172.63 501.761 1172.02 500.753C1171.4 499.731 1170.35 498.72 1168.79 498.72V502.72C1168.39 502.72 1168.35 502.424 1168.6 502.832C1168.86 503.254 1169.17 504.062 1169.44 505.408C1169.98 508.065 1170.27 512.192 1170.27 517.88H1174.27ZM1168.79 498.72C1167.62 498.72 1166.61 499.231 1165.81 499.921L1168.41 502.959C1168.57 502.824 1168.68 502.764 1168.74 502.738C1168.79 502.716 1168.8 502.72 1168.79 502.72V498.72ZM1165.81 499.921C1164.59 500.965 1164.27 502.535 1164.27 503.96H1168.27C1168.27 503.504 1168.32 503.221 1168.38 503.062C1168.42 502.917 1168.46 502.919 1168.41 502.959L1165.81 499.921ZM1164.27 503.96V551.12H1168.27V503.96H1164.27ZM1164.27 551.12C1164.27 550.377 1164.76 550.064 1164.69 550.113C1164.65 550.141 1164.45 550.257 1163.96 550.413C1163 550.716 1161.43 551.019 1159.18 551.295L1159.67 555.265C1161.98 554.981 1163.84 554.644 1165.16 554.227C1165.81 554.023 1166.46 553.759 1166.99 553.387C1167.49 553.036 1168.27 552.303 1168.27 551.12H1164.27ZM1159.22 551.291C1154.81 551.763 1150.2 552 1145.39 552V556C1150.33 556 1155.09 555.757 1159.64 555.269L1159.22 551.291ZM1145.39 552C1142.97 552 1141.01 551.95 1139.48 551.854C1137.93 551.755 1136.95 551.614 1136.44 551.473L1135.37 555.327C1136.31 555.586 1137.63 555.745 1139.23 555.846C1140.87 555.95 1142.93 556 1145.39 556V552ZM1136.57 551.514C1136.09 551.342 1135.91 551.184 1135.87 551.136C1135.85 551.119 1135.86 551.122 1135.87 551.141C1135.87 551.159 1135.87 551.158 1135.87 551.12H1131.87C1131.87 552.121 1132.21 553.049 1132.89 553.804C1133.53 554.516 1134.37 554.978 1135.24 555.286L1136.57 551.514ZM1135.87 551.12V517.88H1131.87V551.12H1135.87ZM1135.87 517.88C1135.87 513.409 1135.73 509.78 1135.44 507.021C1135.29 505.641 1135.11 504.443 1134.87 503.446C1134.64 502.48 1134.33 501.564 1133.88 500.846L1130.5 502.994C1130.6 503.156 1130.79 503.565 1130.98 504.369C1131.16 505.142 1131.32 506.159 1131.46 507.439C1131.73 510 1131.87 513.471 1131.87 517.88H1135.87ZM1133.83 500.773C1132.94 499.507 1131.64 498.72 1130.03 498.72V502.72C1130.18 502.72 1130.32 502.733 1130.55 503.067L1133.83 500.773ZM1130.03 498.72C1128.73 498.72 1127.5 499.22 1126.68 500.379C1125.96 501.409 1125.75 502.707 1125.75 503.96H1129.75C1129.75 503.053 1129.92 502.731 1129.95 502.681C1129.95 502.68 1129.93 502.71 1129.89 502.73C1129.86 502.745 1129.88 502.72 1130.03 502.72V498.72ZM1125.75 503.96V551.12H1129.75V503.96H1125.75ZM1125.75 551.12C1125.75 550.377 1126.24 550.064 1126.17 550.113C1126.13 550.141 1125.93 550.257 1125.44 550.413C1124.48 550.716 1122.91 551.019 1120.66 551.295L1121.15 555.265C1123.46 554.981 1125.32 554.644 1126.64 554.227C1127.29 554.023 1127.94 553.759 1128.47 553.387C1128.97 553.036 1129.75 552.303 1129.75 551.12H1125.75ZM1120.7 551.291C1116.21 551.763 1111.56 552 1106.75 552V556C1111.69 556 1116.48 555.757 1121.12 555.269L1120.7 551.291ZM1106.75 552C1104.37 552 1102.44 551.95 1100.94 551.854C1099.4 551.756 1098.43 551.614 1097.92 551.473L1096.85 555.327C1097.78 555.586 1099.1 555.744 1100.68 555.846C1102.3 555.95 1104.33 556 1106.75 556V552ZM1098.05 551.514C1097.57 551.342 1097.39 551.184 1097.35 551.136C1097.33 551.119 1097.34 551.122 1097.35 551.141C1097.35 551.159 1097.35 551.158 1097.35 551.12H1093.35C1093.35 552.121 1093.69 553.049 1094.37 553.804C1095.01 554.516 1095.85 554.978 1096.72 555.286L1098.05 551.514ZM1097.35 551.12V491.96H1093.35V551.12H1097.35ZM1097.35 491.96C1097.35 492.089 1097.27 491.769 1098.24 491.05C1099.16 490.374 1100.67 489.611 1102.88 488.797L1101.5 485.043C1099.15 485.909 1097.23 486.826 1095.87 487.83C1094.57 488.791 1093.35 490.151 1093.35 491.96H1097.35ZM1102.87 488.801C1107.28 487.203 1111.93 486.4 1116.83 486.4V482.4C1111.49 482.4 1106.37 483.277 1101.51 485.039L1102.87 488.801ZM1116.83 486.4C1119.24 486.4 1120.87 486.755 1121.91 487.289C1122.86 487.777 1123.33 488.412 1123.51 489.263L1127.42 488.417C1126.97 486.307 1125.67 484.723 1123.74 483.731C1121.9 482.785 1119.54 482.4 1116.83 482.4V486.4ZM1123.51 489.241L1124.59 494.521L1128.51 493.719L1127.43 488.439L1123.51 489.241ZM1126.55 496.12H1127.39V492.12H1126.55V496.12ZM1129.17 495.027C1131.23 490.974 1134.64 488.052 1139.58 486.283L1138.23 482.517C1132.45 484.588 1128.18 488.146 1125.61 493.213L1129.17 495.027ZM1139.52 486.304C1141.49 485.671 1144.14 485.32 1147.55 485.32V481.32C1143.91 481.32 1140.81 481.689 1138.3 482.496L1139.52 486.304ZM1147.55 485.32C1150.71 485.32 1153.34 486.122 1155.52 487.656C1157.71 489.2 1159.59 491.578 1161.08 494.932L1164.74 493.308C1163.03 489.462 1160.74 486.44 1157.82 484.384C1154.88 482.318 1151.43 481.32 1147.55 481.32V485.32ZM1164.74 494.915C1165.52 493.122 1167.65 490.994 1171.71 488.652L1169.71 485.188C1165.45 487.646 1162.38 490.318 1161.07 493.325L1164.74 494.915ZM1171.71 488.652C1175.55 486.437 1179.8 485.32 1184.51 485.32V481.32C1179.14 481.32 1174.19 482.603 1169.71 485.188L1171.71 488.652ZM1184.51 485.32C1192.03 485.32 1196.48 487.647 1198.71 491.722L1202.22 489.798C1199.02 483.953 1192.83 481.32 1184.51 481.32V485.32ZM1198.73 491.755C1201.26 496.162 1202.67 503.599 1202.67 514.4H1206.67C1206.67 503.441 1205.27 495.118 1202.2 489.765L1198.73 491.755ZM1273.84 553.16L1274.28 555.111L1274.3 555.106L1274.33 555.1L1273.84 553.16ZM1264 554.6L1263.86 552.605L1263.83 552.607L1263.81 552.609L1264 554.6ZM1246.96 554.84L1246.77 556.831L1246.78 556.832L1246.96 554.84ZM1240.24 553.64L1239.8 555.59L1240.24 553.64ZM1232.56 551L1231.69 552.801L1232.56 551ZM1225.12 546.08L1223.83 547.609L1223.84 547.618L1223.86 547.628L1225.12 546.08ZM1218.64 538.4L1216.92 539.42L1216.92 539.422L1218.64 538.4ZM1215.88 492.44L1214.03 491.675L1214.03 491.686L1214.02 491.697L1215.88 492.44ZM1224.16 479.48L1222.8 478.013L1222.79 478.022L1222.78 478.03L1224.16 479.48ZM1235.32 472.16L1236.13 473.989L1236.14 473.986L1236.15 473.982L1235.32 472.16ZM1276.6 470L1275.9 471.871L1275.9 471.873L1276.6 470ZM1281.76 473.36L1283.18 471.946V471.946L1281.76 473.36ZM1281.88 490.88L1279.98 490.258L1279.98 490.274L1279.97 490.289L1281.88 490.88ZM1249.36 498.32L1247.68 497.241L1247.67 497.256L1247.66 497.272L1249.36 498.32ZM1249 525.08L1247.23 526.01L1247.24 526.027L1247.25 526.044L1249 525.08ZM1266.64 527.48L1267.23 529.392L1267.24 529.389L1267.25 529.386L1266.64 527.48ZM1281.64 531.8L1279.73 532.372L1279.73 532.387L1279.73 532.402L1281.64 531.8ZM1281.16 549.56L1282.54 551.008L1282.54 551.007L1281.16 549.56ZM1273.4 551.209C1270.3 551.906 1267.12 552.372 1263.86 552.605L1264.14 556.595C1267.6 556.348 1270.98 555.854 1274.28 555.111L1273.4 551.209ZM1263.81 552.609C1260.59 552.923 1257.42 553.08 1254.28 553.08V557.08C1257.55 557.08 1260.85 556.917 1264.2 556.591L1263.81 552.609ZM1254.28 553.08C1251.18 553.08 1248.81 553 1247.14 552.848L1246.78 556.832C1248.63 557 1251.14 557.08 1254.28 557.08V553.08ZM1247.15 552.849C1245.6 552.701 1243.45 552.322 1240.69 551.69L1239.8 555.59C1242.63 556.238 1244.97 556.659 1246.77 556.831L1247.15 552.849ZM1240.69 551.69C1238.02 551.08 1235.6 550.247 1233.43 549.199L1231.69 552.801C1234.16 553.993 1236.87 554.92 1239.8 555.59L1240.69 551.69ZM1233.43 549.199C1231.29 548.165 1228.94 546.622 1226.39 544.532L1223.86 547.628C1226.58 549.858 1229.19 551.595 1231.69 552.801L1233.43 549.199ZM1226.41 544.551C1224.03 542.539 1222.01 540.152 1220.36 537.378L1216.92 539.422C1218.79 542.568 1221.1 545.301 1223.83 547.609L1226.41 544.551ZM1220.36 537.38C1216.52 530.9 1214.52 522.405 1214.52 511.76H1210.52C1210.52 522.875 1212.6 532.14 1216.92 539.42L1220.36 537.38ZM1214.52 511.76C1214.52 504.683 1215.61 498.503 1217.74 493.183L1214.02 491.697C1211.67 497.577 1210.52 504.277 1210.52 511.76H1214.52ZM1217.73 493.205C1219.98 487.773 1222.6 483.72 1225.54 480.93L1222.78 478.03C1219.32 481.32 1216.42 485.907 1214.03 491.675L1217.73 493.205ZM1225.52 480.947C1228.64 478.06 1232.17 475.741 1236.13 473.989L1234.51 470.331C1230.15 472.259 1226.25 474.82 1222.8 478.013L1225.52 480.947ZM1236.15 473.982C1242.63 471.049 1249.11 469.6 1255.6 469.6V465.6C1248.49 465.6 1241.45 467.191 1234.5 470.338L1236.15 473.982ZM1255.6 469.6C1265.33 469.6 1272.02 470.408 1275.9 471.871L1277.31 468.129C1272.7 466.392 1265.39 465.6 1255.6 465.6V469.6ZM1275.9 471.873C1277.54 472.488 1279.02 473.446 1280.35 474.774L1283.18 471.946C1281.46 470.234 1279.5 468.952 1277.3 468.127L1275.9 471.873ZM1280.35 474.774C1281.38 475.805 1282.04 477.425 1282.04 479.96H1286.04C1286.04 476.735 1285.18 473.955 1283.18 471.946L1280.35 474.774ZM1282.04 479.96C1282.04 482.54 1281.39 485.952 1279.98 490.258L1283.78 491.502C1285.25 487.008 1286.04 483.14 1286.04 479.96H1282.04ZM1279.97 490.289C1278.65 494.556 1277.08 495.48 1275.88 495.48V499.48C1279.96 499.48 1282.39 496.004 1283.79 491.471L1279.97 490.289ZM1275.88 495.48C1275.9 495.48 1275.85 495.48 1275.72 495.464C1275.59 495.449 1275.43 495.425 1275.21 495.388C1274.78 495.315 1274.21 495.202 1273.48 495.045C1272.04 494.732 1270.04 494.258 1267.49 493.62L1266.52 497.5C1269.08 498.142 1271.13 498.628 1272.64 498.955C1274.05 499.259 1275.22 499.48 1275.88 499.48V495.48ZM1267.49 493.62C1262.4 492.348 1258.69 491.64 1256.56 491.64V495.64C1258.12 495.64 1261.36 496.212 1266.52 497.5L1267.49 493.62ZM1256.56 491.64C1252.87 491.64 1249.91 493.755 1247.68 497.241L1251.05 499.399C1252.81 496.645 1254.66 495.64 1256.56 495.64V491.64ZM1247.66 497.272C1245.46 500.839 1244.48 505.703 1244.48 511.64H1248.48C1248.48 506.057 1249.42 502.041 1251.07 499.368L1247.66 497.272ZM1244.48 511.64C1244.48 517.551 1245.34 522.402 1247.23 526.01L1250.77 524.15C1249.31 521.358 1248.48 517.249 1248.48 511.64H1244.48ZM1247.25 526.044C1249.24 529.658 1252.09 531.88 1255.84 531.88V527.88C1254 527.88 1252.29 526.902 1250.75 524.116L1247.25 526.044ZM1255.84 531.88C1258.19 531.88 1262.06 530.982 1267.23 529.392L1266.05 525.568C1260.82 527.178 1257.5 527.88 1255.84 527.88V531.88ZM1267.25 529.386C1269.88 528.549 1271.94 527.929 1273.44 527.52C1274.19 527.315 1274.78 527.168 1275.22 527.074C1275.71 526.97 1275.89 526.96 1275.88 526.96V522.96C1275.43 522.96 1274.9 523.055 1274.39 523.161C1273.85 523.277 1273.17 523.445 1272.39 523.66C1270.81 524.091 1268.69 524.731 1266.04 525.574L1267.25 529.386ZM1275.88 526.96C1276.41 526.96 1276.99 527.169 1277.65 527.958C1278.36 528.8 1279.08 530.216 1279.73 532.372L1283.56 531.228C1282.84 528.824 1281.92 526.82 1280.71 525.382C1279.46 523.891 1277.83 522.96 1275.88 522.96V526.96ZM1279.73 532.402C1281.15 536.885 1281.8 540.339 1281.8 542.84H1285.8C1285.8 539.741 1285.01 535.835 1283.55 531.198L1279.73 532.402ZM1281.8 542.84C1281.8 545.183 1281.08 546.869 1279.78 548.113L1282.54 551.007C1284.76 548.891 1285.8 546.097 1285.8 542.84H1281.8ZM1279.78 548.112C1278.44 549.393 1276.35 550.47 1273.36 551.22L1274.33 555.1C1277.73 554.25 1280.53 552.927 1282.54 551.008L1279.78 548.112ZM1313.35 553.52L1313.82 551.576L1313.35 553.52ZM1301.59 548L1302.79 546.4L1302.78 546.39L1302.77 546.381L1301.59 548ZM1301.83 491L1300.65 489.389L1300.64 489.394L1301.83 491ZM1340.95 484.04L1340.67 486.02L1340.69 486.023L1340.72 486.026L1340.95 484.04ZM1351.15 486.8L1350.38 488.645L1350.39 488.648L1350.39 488.651L1351.15 486.8ZM1359.55 492.68L1358.02 493.965L1358.03 493.979L1358.04 493.994L1359.55 492.68ZM1364.83 503L1362.92 503.591L1362.92 503.601L1364.83 503ZM1356.55 545.96L1357.88 547.459L1357.89 547.45L1356.55 545.96ZM1324.63 531.68L1322.67 532.062L1324.63 531.68ZM1326.31 536.84L1324.9 538.254L1324.94 538.301L1324.99 538.345L1326.31 536.84ZM1331.11 536.84L1329.79 535.335L1329.74 535.379L1329.7 535.426L1331.11 536.84ZM1332.79 531.68L1330.83 531.298L1330.82 531.325L1330.82 531.351L1332.79 531.68ZM1333.27 510.8L1331.28 510.933L1331.28 510.969L1331.28 511.006L1333.27 510.8ZM1332.55 505.28L1330.59 505.649L1330.6 505.707L1330.61 505.765L1332.55 505.28ZM1331.47 502.28L1333.14 501.171L1333.13 501.156L1333.12 501.142L1331.47 502.28ZM1326.43 501.68L1327.75 503.185L1327.8 503.141L1327.85 503.094L1326.43 501.68ZM1324.63 506.96L1326.6 507.342L1326.6 507.332L1324.63 506.96ZM1328.83 553.08C1322.94 553.08 1317.94 552.568 1313.82 551.576L1312.88 555.464C1317.4 556.552 1322.73 557.08 1328.83 557.08V553.08ZM1313.82 551.576C1309.76 550.599 1306.09 548.875 1302.79 546.4L1300.39 549.6C1304.13 552.405 1308.3 554.361 1312.88 555.464L1313.82 551.576ZM1302.77 546.381C1296.26 541.659 1292.67 532.63 1292.67 518.48H1288.67C1288.67 533.13 1292.37 543.781 1300.42 549.619L1302.77 546.381ZM1292.67 518.48C1292.67 506.054 1296.27 497.617 1303.02 492.606L1300.64 489.394C1292.51 495.423 1288.67 505.306 1288.67 518.48H1292.67ZM1303.02 492.611C1309.55 487.806 1318.1 485.32 1328.83 485.32V481.32C1317.48 481.32 1308.04 483.954 1300.65 489.389L1303.02 492.611ZM1328.83 485.32C1333.49 485.32 1337.43 485.557 1340.67 486.02L1341.23 482.06C1337.75 481.563 1333.61 481.32 1328.83 481.32V485.32ZM1340.72 486.026C1343.87 486.402 1347.09 487.269 1350.38 488.645L1351.92 484.955C1348.33 483.451 1344.75 482.478 1341.19 482.054L1340.72 486.026ZM1350.39 488.651C1353.67 489.99 1356.18 491.774 1358.02 493.965L1361.08 491.395C1358.76 488.626 1355.68 486.49 1351.91 484.949L1350.39 488.651ZM1358.04 493.994C1359.96 496.197 1361.61 499.358 1362.92 503.591L1366.74 502.409C1365.33 497.842 1363.46 494.123 1361.06 491.366L1358.04 493.994ZM1362.92 503.601C1364.21 507.675 1364.87 512.622 1364.87 518.48H1368.87C1368.87 512.338 1368.18 506.965 1366.74 502.399L1362.92 503.601ZM1364.87 518.48C1364.87 530.262 1361.55 538.8 1355.22 544.47L1357.89 547.45C1365.31 540.8 1368.87 531.018 1368.87 518.48H1364.87ZM1355.23 544.461C1348.8 550.14 1340.08 553.08 1328.83 553.08V557.08C1340.79 557.08 1350.54 553.94 1357.88 547.459L1355.23 544.461ZM1322.67 532.062C1322.96 533.539 1323.25 534.779 1323.57 535.749C1323.85 536.618 1324.25 537.606 1324.9 538.254L1327.73 535.426C1327.81 535.514 1327.65 535.362 1327.37 534.511C1327.13 533.761 1326.87 532.701 1326.6 531.298L1322.67 532.062ZM1324.99 538.345C1326.05 539.266 1327.33 539.68 1328.71 539.68V535.68C1328.17 535.68 1327.86 535.534 1327.63 535.335L1324.99 538.345ZM1328.71 539.68C1330.11 539.68 1331.48 539.296 1332.53 538.254L1329.7 535.426C1329.62 535.504 1329.39 535.68 1328.71 535.68V539.68ZM1332.43 538.345C1333.19 537.68 1333.62 536.645 1333.91 535.749C1334.24 534.755 1334.52 533.495 1334.76 532.009L1330.82 531.351C1330.59 532.745 1330.35 533.785 1330.11 534.511C1329.84 535.335 1329.68 535.44 1329.79 535.335L1332.43 538.345ZM1334.76 532.062C1335.35 529.012 1335.63 525.274 1335.63 520.88H1331.63C1331.63 525.126 1331.36 528.588 1330.83 531.298L1334.76 532.062ZM1335.63 520.88C1335.63 516.46 1335.51 513.018 1335.26 510.594L1331.28 511.006C1331.51 513.222 1331.63 516.5 1331.63 520.88H1335.63ZM1335.27 510.667C1335.1 508.228 1334.86 506.248 1334.49 504.795L1330.61 505.765C1330.89 506.872 1331.12 508.572 1331.28 510.933L1335.27 510.667ZM1334.52 504.911C1334.25 503.488 1333.82 502.198 1333.14 501.171L1329.81 503.389C1330.08 503.802 1330.37 504.512 1330.59 505.649L1334.52 504.911ZM1333.12 501.142C1332.11 499.695 1330.67 498.72 1328.83 498.72V502.72C1329.07 502.72 1329.39 502.785 1329.83 503.418L1333.12 501.142ZM1328.83 498.72C1327.38 498.72 1326.06 499.226 1325.02 500.266L1327.85 503.094C1328.09 502.854 1328.37 502.72 1328.83 502.72V498.72ZM1325.11 500.175C1324.36 500.833 1323.92 501.87 1323.61 502.775C1323.27 503.781 1322.95 505.065 1322.67 506.588L1326.6 507.332C1326.87 505.895 1327.14 504.819 1327.39 504.065C1327.69 503.21 1327.86 503.087 1327.75 503.185L1325.11 500.175ZM1322.67 506.578C1322.07 509.647 1321.79 513.918 1321.79 519.32H1325.79C1325.79 514.002 1326.07 510.033 1326.6 507.342L1322.67 506.578ZM1321.79 519.32C1321.79 524.722 1322.07 528.993 1322.67 532.062L1326.6 531.298C1326.07 528.607 1325.79 524.638 1325.79 519.32H1321.79ZM1439.54 553.28L1439.75 555.269L1439.77 555.267L1439.78 555.265L1439.54 553.28ZM1416.02 553.4L1415.35 555.286L1415.42 555.309L1415.48 555.327L1416.02 553.4ZM1413.5 505.88L1411.54 506.299L1411.56 506.365L1411.58 506.429L1413.5 505.88ZM1412.78 502.88L1414.71 502.354L1414.69 502.27L1414.66 502.189L1412.78 502.88ZM1399.58 553.28L1399.79 555.269L1399.81 555.267L1399.82 555.265L1399.58 553.28ZM1376.18 553.4L1375.55 555.297L1375.6 555.313L1375.65 555.327L1376.18 553.4ZM1380.86 486.92L1380.18 485.039L1380.17 485.043L1380.86 486.92ZM1404.14 488.84L1406.1 488.439L1406.1 488.428L1406.1 488.417L1404.14 488.84ZM1405.22 494.12L1403.26 494.521L1403.59 496.12H1405.22V494.12ZM1406.06 494.12V496.12H1407.3L1407.85 495.014L1406.06 494.12ZM1418.06 484.4L1417.47 482.49L1417.46 482.494L1417.44 482.497L1418.06 484.4ZM1442.06 490.64L1440.33 491.635L1440.34 491.652L1440.35 491.669L1442.06 490.64ZM1444.38 514.16V551.12H1448.38V514.16H1444.38ZM1444.38 551.12C1444.38 550.377 1444.87 550.064 1444.8 550.113C1444.76 550.141 1444.56 550.257 1444.07 550.413C1443.11 550.716 1441.54 551.019 1439.3 551.295L1439.78 555.265C1442.1 554.981 1443.95 554.644 1445.27 554.227C1445.92 554.023 1446.57 553.759 1447.1 553.387C1447.6 553.036 1448.38 552.303 1448.38 551.12H1444.38ZM1439.33 551.291C1434.84 551.763 1430.19 552 1425.38 552V556C1430.33 556 1435.12 555.757 1439.75 555.269L1439.33 551.291ZM1425.38 552C1423 552 1421.07 551.95 1419.57 551.854C1418.03 551.756 1417.06 551.614 1416.56 551.473L1415.48 555.327C1416.42 555.586 1417.73 555.744 1419.31 555.846C1420.93 555.95 1422.96 556 1425.38 556V552ZM1416.69 551.514C1416.2 551.342 1416.02 551.184 1415.98 551.136C1415.97 551.119 1415.97 551.122 1415.98 551.141C1415.99 551.159 1415.98 551.158 1415.98 551.12H1411.98C1411.98 552.121 1412.32 553.049 1413 553.804C1413.64 554.516 1414.48 554.978 1415.35 555.286L1416.69 551.514ZM1415.98 551.12V512.96H1411.98V551.12H1415.98ZM1415.98 512.96C1415.98 509.415 1415.83 506.767 1415.42 505.331L1411.58 506.429C1411.81 507.233 1411.98 509.305 1411.98 512.96H1415.98ZM1415.46 505.461C1415.21 504.314 1414.96 503.277 1414.71 502.354L1410.85 503.406C1411.08 504.243 1411.31 505.206 1411.54 506.299L1415.46 505.461ZM1414.66 502.189C1414.28 501.173 1413.7 500.246 1412.82 499.578C1411.92 498.895 1410.87 498.6 1409.78 498.6V502.6C1410.13 502.6 1410.3 502.685 1410.4 502.762C1410.52 502.854 1410.72 503.067 1410.9 503.571L1414.66 502.189ZM1409.78 498.6C1408.37 498.6 1406.94 498.939 1405.87 499.97C1404.79 501.015 1404.42 502.433 1404.42 503.84H1408.42C1408.42 503.087 1408.61 502.885 1408.65 502.85C1408.7 502.801 1408.95 502.6 1409.78 502.6V498.6ZM1404.42 503.84V551.12H1408.42V503.84H1404.42ZM1404.42 551.12C1404.42 550.377 1404.91 550.064 1404.84 550.113C1404.8 550.141 1404.6 550.257 1404.11 550.413C1403.15 550.716 1401.58 551.019 1399.34 551.295L1399.82 555.265C1402.14 554.981 1403.99 554.644 1405.31 554.227C1405.96 554.023 1406.61 553.759 1407.14 553.387C1407.64 553.036 1408.42 552.303 1408.42 551.12H1404.42ZM1399.37 551.291C1394.96 551.763 1390.35 552 1385.54 552V556C1390.49 556 1395.24 555.757 1399.79 555.269L1399.37 551.291ZM1385.54 552C1383.16 552 1381.23 551.95 1379.73 551.854C1378.19 551.756 1377.22 551.614 1376.72 551.473L1375.65 555.327C1376.58 555.586 1377.89 555.744 1379.47 555.846C1381.09 555.95 1383.12 556 1385.54 556V552ZM1376.81 551.503C1376.27 551.323 1376.07 551.153 1376.01 551.095C1375.99 551.073 1376 551.077 1376.01 551.105C1376.02 551.133 1376.02 551.144 1376.02 551.12H1372.02C1372.02 552.156 1372.4 553.097 1373.11 553.845C1373.77 554.547 1374.65 554.997 1375.55 555.297L1376.81 551.503ZM1376.02 551.12V491.96H1372.02V551.12H1376.02ZM1376.02 491.96C1376.02 492.089 1375.94 491.769 1376.92 491.05C1377.83 490.374 1379.34 489.611 1381.55 488.797L1380.17 485.043C1377.82 485.909 1375.91 486.826 1374.54 487.83C1373.24 488.791 1372.02 490.151 1372.02 491.96H1376.02ZM1381.54 488.801C1385.95 487.203 1390.6 486.4 1395.5 486.4V482.4C1390.16 482.4 1385.05 483.277 1380.18 485.039L1381.54 488.801ZM1395.5 486.4C1397.91 486.4 1399.55 486.755 1400.59 487.289C1401.54 487.777 1402 488.412 1402.19 489.263L1406.1 488.417C1405.64 486.307 1404.34 484.723 1402.41 483.731C1400.57 482.785 1398.21 482.4 1395.5 482.4V486.4ZM1402.18 489.241L1403.26 494.521L1407.18 493.719L1406.1 488.439L1402.18 489.241ZM1405.22 496.12H1406.06V492.12H1405.22V496.12ZM1407.85 495.014C1409.89 490.927 1413.42 488.004 1418.68 486.303L1417.44 482.497C1411.34 484.476 1406.87 488.033 1404.27 493.226L1407.85 495.014ZM1418.65 486.31C1420.75 485.658 1423.11 485.32 1425.74 485.32V481.32C1422.77 481.32 1420.01 481.702 1417.47 482.49L1418.65 486.31ZM1425.74 485.32C1433.45 485.32 1438.03 487.628 1440.33 491.635L1443.8 489.645C1440.49 483.892 1434.19 481.32 1425.74 481.32V485.32ZM1440.35 491.669C1442.93 495.982 1444.38 503.359 1444.38 514.16H1448.38C1448.38 503.201 1446.95 494.898 1443.78 489.611L1440.35 491.669Z" fill="black"/>
</svg>
